<?xml version="1.0" encoding="UTF-8"?>
<svg version="1.1" xmlns="http://www.w3.org/2000/svg" width="471" height="445">
<path d="M0 0 C3.13464136 2.87266004 6.14129902 5.862255 9.14167786 8.87425232 C10.01634207 9.74438542 10.89100628 10.61451852 11.79217547 11.51101929 C14.19627868 13.9047197 16.59589435 16.30275666 18.99361122 18.70284379 C21.58918333 21.29882659 24.19048244 23.88906062 26.79098511 26.48010254 C31.8748982 31.54746283 36.95330029 36.62031089 42.02950213 41.69539481 C46.15588204 45.82082211 50.28384223 49.9446615 54.41290855 54.06739998 C66.13094081 65.76784035 77.84479273 77.4724428 89.55328123 89.1824336 C90.18337176 89.81260405 90.8134623 90.44277449 91.46264648 91.09204102 C92.09350868 91.72298497 92.72437087 92.35392892 93.37435009 93.00399239 C103.60914166 103.23959768 113.85388578 113.465177 124.1031603 123.6862781 C134.63822567 134.19261334 145.16581321 144.70639059 155.68565959 155.22796494 C161.58754293 161.13051183 167.4924584 167.02994945 173.40543556 172.92138481 C178.43650997 177.93424644 183.4605944 182.95398588 188.4757788 187.98274689 C191.03329029 190.54678567 193.59389399 193.10751706 196.16333961 195.65960121 C198.95088769 198.42850717 201.72272221 201.21281284 204.49324036 203.99876404 C205.3042219 204.79945846 206.11520344 205.60015287 206.95076019 206.42511076 C213.30213957 212.85496836 217.59640423 219.14840379 218.15234375 228.4140625 C217.82404146 233.98678346 216.04750829 238.72185284 212.30078125 242.890625 C206.80518933 247.48329005 200.75436983 249.18134412 193.64453125 248.91015625 C183.92258393 247.42090786 177.22267125 238.36654657 170.61964417 231.71298218 C169.81469904 230.90606922 169.00975392 230.09915626 168.18041652 229.26779139 C165.50143101 226.58112721 162.82606214 223.89089068 160.15063477 221.20068359 C158.22373802 219.26636059 156.29603421 217.33284272 154.36831665 215.39933777 C150.22603792 211.24398097 146.08539239 207.08700271 141.9456501 202.92911911 C135.3980176 196.35318461 128.84453045 189.78310156 122.2900238 183.21401978 C120.04388008 180.96275269 117.79776175 178.71146026 115.55164242 176.46016884 C114.99044464 175.89768503 114.42924686 175.33520122 113.85104309 174.75567245 C107.4743594 168.36427887 101.09856615 161.97199751 94.72338867 155.57910156 C94.14112237 154.99522052 93.55885606 154.41133947 92.95894533 153.80976506 C83.51688936 144.34115551 74.08045767 134.8669571 64.64562572 125.39115004 C54.94474627 115.64850092 45.2361918 105.91354553 35.52092594 96.1852423 C29.5359752 90.19170987 23.55730088 84.19205306 17.58661842 78.18430604 C13.49452427 74.06789022 9.39512402 69.95884504 5.28995795 65.85546564 C2.92417512 63.49025909 0.56294468 61.12094056 -1.79186058 58.74477577 C-4.34961202 56.16483586 -6.91947453 53.59758336 -9.49266052 51.03305054 C-10.22750481 50.28587277 -10.96234909 49.538695 -11.71946138 48.76887548 C-16.96910801 43.57439323 -22.6227877 38.91642546 -30.00390625 37.37109375 C-30.84824219 37.39300781 -31.69257813 37.41492187 -32.5625 37.4375 C-33.40941406 37.43621094 -34.25632813 37.43492188 -35.12890625 37.43359375 C-42.46327767 38.88051056 -47.67257227 43.08312552 -52.80847168 48.28034973 C-53.76202537 49.22136843 -53.76202537 49.22136843 -54.73484278 50.18139762 C-56.84775312 52.27145543 -58.94623125 54.37540784 -61.04492188 56.47973633 C-62.56252231 57.98699839 -64.08094612 59.49343181 -65.60012817 60.99909973 C-69.71250231 65.08048003 -73.81195741 69.17460333 -77.90823174 73.27213502 C-81.32968113 76.69275323 -84.7568194 80.1076445 -88.18378305 83.52273673 C-96.26514277 91.57674439 -104.33545849 99.64170468 -112.39941406 107.71313477 C-120.72165078 116.04262384 -129.06404881 124.35152942 -137.41627455 132.65093786 C-144.58815819 139.7790985 -151.74650153 146.92066268 -158.89428759 154.07298678 C-163.16303499 158.34405944 -167.43696741 162.60960533 -171.72434998 166.86197853 C-175.75203114 170.85779324 -179.76260195 174.87001554 -183.76052475 178.89559746 C-185.23151265 180.37105365 -186.70851813 181.84053807 -188.19185257 183.30358124 C-190.21361027 185.29953987 -192.21266189 187.31578743 -194.20739746 189.33869934 C-194.80114654 189.91478701 -195.39489562 190.49087468 -196.0066371 191.08441955 C-198.94957973 194.11819112 -199.92271676 195.46681297 -200.54953766 199.79133129 C-200.36819023 200.85019197 -200.1868428 201.90905264 -200 203 C-196.74184419 205.17210388 -195.84573865 205.25055543 -192.08010674 205.25333309 C-191.05904898 205.25894849 -190.03799122 205.26456388 -188.98599231 205.27034944 C-187.86082206 205.26636835 -186.73565181 205.26238726 -185.5763855 205.25828552 C-184.38369147 205.26196123 -183.19099745 205.26563693 -181.96216118 205.26942402 C-178.64557975 205.27769677 -175.32921343 205.27702567 -172.01263857 205.27269709 C-168.43783087 205.27022519 -164.86305121 205.27928378 -161.28825378 205.28707886 C-155.0906616 205.29913618 -148.89309515 205.30423246 -142.69549179 205.30496025 C-133.72494438 205.306285 -124.75445949 205.3213895 -115.78393413 205.34045542 C-101.21761746 205.37131651 -86.65129921 205.3954715 -72.08496094 205.41333008 C-70.77667169 205.4149391 -70.77667169 205.4149391 -69.44195236 205.41658062 C-59.71689785 205.42839399 -49.9918427 205.43859943 -40.26678467 205.44702148 C-36.74361164 205.45009519 -33.22043862 205.45318402 -29.69726562 205.45629883 C-28.39329627 205.45744684 -28.39329627 205.45744684 -27.06298409 205.45861804 C-12.55911034 205.47170744 1.94471833 205.49635991 16.44855869 205.53004223 C25.39365572 205.55031852 34.33865626 205.5606235 43.28377645 205.55805302 C49.41747722 205.55701657 55.55110183 205.56667703 61.68477602 205.58469205 C65.22208042 205.59472 68.75921628 205.59988368 72.29652977 205.59192467 C76.13594917 205.5833889 79.97508689 205.59800787 83.81448364 205.61473083 C84.92626956 205.60851902 86.03805548 205.6023072 87.18353188 205.59590715 C94.44818396 205.65353041 101.48191053 206.19257635 107.33984375 210.8671875 C107.86707031 211.52976563 108.39429688 212.19234375 108.9375 212.875 C109.48277344 213.53242188 110.02804687 214.18984375 110.58984375 214.8671875 C114.38972688 220.61437917 114.91603367 226.26668031 114 233 C111.47568009 239.42455667 106.75874425 243.65078484 101 247.25 C94.58793999 249.65452251 87.63757333 249.14279459 80.90086365 249.13371277 C79.67167664 249.13597833 78.44248963 249.13824388 77.17605454 249.14057809 C73.77141582 249.14580907 70.36682996 249.14656368 66.96219099 249.14538372 C63.287163 249.14517944 59.61214285 249.1507011 55.93711853 249.15544128 C48.73860034 249.16374364 41.54009033 249.16649597 34.34156775 249.16705366 C28.4870344 249.16752917 22.63250376 249.16958565 16.77797127 249.17275429 C0.16733883 249.18156095 -16.44328715 249.18617383 -33.05392195 249.18542381 C-33.94918679 249.18538386 -34.84445163 249.1853439 -35.7668457 249.18530273 C-36.66320832 249.18526185 -37.55957094 249.18522097 -38.48309606 249.18517885 C-52.99776184 249.18477273 -67.51240165 249.19433375 -82.02705992 249.2084411 C-96.94234817 249.22282299 -111.85762376 249.22971024 -126.77291912 249.22884732 C-135.14186795 249.22851591 -143.51078956 249.23123862 -151.87973213 249.24202538 C-159.0081129 249.25115441 -166.13645413 249.25328608 -173.26483823 249.24651595 C-176.89782115 249.24326239 -180.53072831 249.24315159 -184.16370392 249.2518692 C-188.11316325 249.26124817 -192.06251335 249.25492754 -196.01197815 249.24723816 C-197.14508488 249.25238172 -198.27819161 249.25752529 -199.4456349 249.26282471 C-214.73593932 249.19736295 -227.85107727 247.08931978 -239.375 236.375 C-248.14847328 226.98089517 -252.63126268 215.25667304 -252.24609375 202.41015625 C-250.62339296 186.5179914 -242.1714522 174.9839601 -230.28705025 164.78369904 C-226.31514709 161.32084456 -222.56952792 157.6893911 -218.86813354 153.94128418 C-218.19738993 153.26645603 -217.52664631 152.59162787 -216.83557713 151.89635038 C-214.61045461 149.65659934 -212.3890107 147.41323555 -210.16748047 145.16992188 C-208.56369344 143.55438101 -206.95962611 141.93911836 -205.3553009 140.32411194 C-201.91065219 136.85603423 -198.46729906 133.386677 -195.02474594 129.91651917 C-189.57322056 124.42268719 -184.11454669 118.93599648 -178.65408325 113.4510498 C-177.73066348 112.52344172 -176.80724371 111.59583364 -175.85584152 110.64011621 C-173.96811897 108.74389056 -172.08037601 106.84768525 -170.1926024 104.95151043 C-165.35117771 100.08848212 -160.51013887 95.2250702 -155.66992188 90.36083984 C-155.1846668 89.87318309 -154.69941172 89.38552634 -154.19945194 88.88309211 C-146.34084004 80.984902 -138.49322928 73.07586132 -130.64916275 65.16322869 C-122.57321001 57.01728799 -114.48354388 48.88517087 -106.38231385 40.76436472 C-101.84316219 36.21326511 -97.31051374 31.65609346 -92.79302597 27.08348083 C-88.54159409 22.78038759 -84.27384869 18.49416099 -79.99339867 14.21993828 C-78.43212883 12.65516668 -76.87679232 11.08444707 -75.32815361 9.50717354 C-53.51988792 -12.68552992 -26.35733343 -21.95587375 0 0 Z " fill="#0B3150" transform="translate(252,13)"/>
<path d="M0 0 C0.74625687 -0.00350607 1.49251374 -0.00701215 2.26138446 -0.01062447 C4.76999868 -0.01995205 7.27838146 -0.01501168 9.78700542 -0.01015663 C11.60053325 -0.01389221 13.41405946 -0.01849336 15.22758311 -0.02388728 C20.21755233 -0.03614414 25.20745465 -0.03585365 30.1974355 -0.03349853 C35.57656621 -0.03309104 40.95567528 -0.04412299 46.33479595 -0.05361366 C56.87592916 -0.0702393 67.41704001 -0.07572391 77.95818523 -0.07683842 C86.52493518 -0.07778814 95.09167773 -0.08189463 103.65842533 -0.08823967 C127.93687553 -0.10585624 152.21530804 -0.11507787 176.49376468 -0.11357872 C177.80311393 -0.11349881 179.11246318 -0.1134189 180.46148968 -0.11333656 C182.42790644 -0.11321392 182.42790644 -0.11321392 184.43404879 -0.1130888 C205.68382931 -0.11227575 226.93353897 -0.13141707 248.18329898 -0.1596133 C269.9927403 -0.18832425 291.80214703 -0.20215458 313.61160773 -0.20042574 C325.85985028 -0.19976123 338.10801854 -0.20528042 350.35624409 -0.22678185 C360.78410485 -0.24497008 371.21185766 -0.24936036 381.63972739 -0.235763 C386.96120402 -0.2292215 392.2824734 -0.22915885 397.60393047 -0.2464695 C402.47520673 -0.26215289 407.34611059 -0.25938503 412.21737751 -0.24190123 C413.9798099 -0.23882089 415.74226975 -0.2425025 417.50466976 -0.25362138 C435.51411439 -0.35971869 435.51411439 -0.35971869 442.03250533 5.63375533 C446.38606858 10.36820234 448.11556583 15.63695111 447.90655804 22.04242516 C447.01013331 27.39266535 444.68832983 32.35614974 440.59796429 35.96820641 C434.60873865 39.89296411 429.27507577 40.38194188 422.16742611 40.38869667 C421.43159908 40.3907493 420.69577204 40.39280194 419.93764722 40.39491677 C417.46455985 40.40058477 414.9915282 40.39912977 412.51843548 40.3977108 C410.73037043 40.40029454 408.94230595 40.40330773 407.15424228 40.4067142 C402.23462862 40.41478626 397.31502955 40.41657389 392.39541006 40.41731167 C387.09193213 40.41916185 381.78846177 40.42670897 376.48498821 40.43344688 C364.8858774 40.44703184 353.28677004 40.45305508 341.68765259 40.45745754 C334.44661225 40.46021949 327.20557324 40.46445674 319.96453381 40.46896172 C299.92015574 40.48115421 279.87577875 40.49145381 259.83139706 40.49483681 C257.90689163 40.49516616 257.90689163 40.49516616 255.9435073 40.49550216 C254.65741951 40.49572044 253.37133171 40.49593871 252.04627156 40.49616361 C249.44013007 40.49660707 246.83398859 40.49705364 244.2278471 40.49750328 C242.93510859 40.49772471 241.64237008 40.49794614 240.31045768 40.49817428 C219.35882733 40.50212313 198.40723175 40.51957991 177.45561484 40.5428628 C155.9501457 40.5665685 134.44469402 40.57903829 112.93921161 40.58020473 C100.86253482 40.58112188 88.78590333 40.58688458 76.70923901 40.60502434 C66.42671645 40.6204147 56.14425319 40.62555203 45.86172131 40.61728624 C40.61508653 40.61337608 35.36857122 40.61432726 30.1219511 40.62834358 C25.31791182 40.64106026 20.51408206 40.63990457 15.71004316 40.62775287 C13.97316446 40.62579202 12.23627103 40.62889221 10.49941304 40.63759723 C-9.03014318 40.72927241 -9.03014318 40.72927241 -15.80437946 35.42523766 C-20.34254436 29.7996885 -22.76389866 25.72378562 -22.33953571 18.31976891 C-21.55158011 12.22685642 -19.54971228 8.23551335 -15.02703571 3.94476891 C-10.06037156 0.67403885 -5.87088876 -0.03495067 0 0 Z " fill="#0B3250" transform="translate(22.4645357131958,404.74273109436035)"/>
<path d="M0 0 C0.7496135 -0.00235223 1.49922699 -0.00470446 2.27155605 -0.00712797 C4.80355278 -0.01382737 7.3354983 -0.01335947 9.86750317 -0.01294994 C11.69310354 -0.01624797 13.51870318 -0.01997341 15.34430188 -0.02409142 C20.37683845 -0.03412627 25.40936308 -0.03783059 30.44190824 -0.04048073 C35.86329398 -0.04437931 41.28467023 -0.05395787 46.70604992 -0.0626936 C59.8054215 -0.08246925 72.90479387 -0.092525 86.00417665 -0.10142139 C92.16836856 -0.10580194 98.3325596 -0.1111693 104.49675083 -0.11641026 C124.97940709 -0.13342262 145.4620628 -0.14791818 165.94472504 -0.155159 C171.26177312 -0.15706898 176.57882119 -0.1589893 181.89586926 -0.16094494 C182.8867424 -0.16130516 182.8867424 -0.16130516 183.89763319 -0.16167267 C204.65553361 -0.16932244 225.41338256 -0.19099832 246.17125988 -0.22246838 C269.48251051 -0.25779403 292.79372384 -0.27941066 316.10500211 -0.28280324 C328.45158417 -0.2849714 340.79808491 -0.29376498 353.14464283 -0.31926441 C363.65641233 -0.34092398 374.16808076 -0.34904521 384.67987005 -0.33929763 C390.04564427 -0.33473933 395.41120974 -0.33672783 400.7769556 -0.35605907 C405.68644155 -0.37359428 410.59556498 -0.37277187 415.50505426 -0.35716178 C417.28366421 -0.354771 419.06229864 -0.35918482 420.84087101 -0.37099043 C423.25459763 -0.38602306 425.66702533 -0.37649784 428.08071899 -0.36076355 C428.7748244 -0.37098576 429.46892981 -0.38120796 430.18406871 -0.39173993 C435.85621608 -0.31077694 439.29969467 1.82862453 443.33849621 5.66156483 C447.4060987 10.69034736 449.19406949 14.44949666 448.97130871 21.02093983 C448.21189032 27.64747773 445.77565707 31.71262328 440.64318371 35.90765858 C435.96058542 38.90834401 431.72780334 39.4240137 426.26458549 39.39148998 C425.14520019 39.39674909 425.14520019 39.39674909 424.00320104 39.40211445 C421.49458681 39.41144203 418.98620404 39.40650166 416.47758007 39.40164661 C414.66405225 39.40538219 412.85052603 39.40998334 411.03700238 39.41537726 C406.04703316 39.42763412 401.05713085 39.42734363 396.06715 39.42498851 C390.68801928 39.42458102 385.30891022 39.43561297 379.92978954 39.44510365 C369.38865633 39.46172928 358.84754549 39.4672139 348.30640026 39.4683284 C339.73965032 39.46927812 331.17290777 39.47338462 322.60616016 39.47972965 C298.32770996 39.49734623 274.04927746 39.50656786 249.77082082 39.5050687 C248.46147157 39.50498879 247.15212232 39.50490888 245.80309582 39.50482655 C244.49215131 39.50474478 243.1812068 39.50466302 241.8305367 39.50457878 C220.58075619 39.50376574 199.33104653 39.52290705 178.08128651 39.55110328 C156.2718452 39.57981423 134.46243846 39.59364456 112.65297776 39.59191573 C100.40473522 39.59125121 88.15656696 39.5967704 75.90834141 39.61827183 C65.48048065 39.63646006 55.05272784 39.64085034 44.6248581 39.62725298 C39.30338147 39.62071148 33.98211209 39.62064883 28.66065502 39.63795948 C23.78937876 39.65364287 18.9184749 39.65087502 14.04720799 39.63339122 C12.2847756 39.63031088 10.52231574 39.63399248 8.75991573 39.64511137 C-9.11784727 39.75043291 -9.11784727 39.75043291 -15.76791984 33.79313505 C-19.64647452 29.65153161 -21.23051936 25.30748163 -21.30212879 19.67718983 C-20.92245756 13.34617205 -19.46111266 9.20753538 -14.77869129 4.69672108 C-9.91904296 0.44150661 -6.20985849 -0.01314037 0 0 Z " fill="#EB2123" transform="translate(21.270878791809082,312.86577892303467)"/>
</svg>
