<?xml version="1.0" encoding="UTF-8"?>
<svg version="1.1" xmlns="http://www.w3.org/2000/svg" width="2837" height="445">
<path d="M0 0 C3.13464136 2.87266004 6.14129902 5.862255 9.14167786 8.87425232 C10.01634207 9.74438542 10.89100628 10.61451852 11.79217547 11.51101929 C14.19627868 13.9047197 16.59589435 16.30275666 18.99361122 18.70284379 C21.58918333 21.29882659 24.19048244 23.88906062 26.79098511 26.48010254 C31.8748982 31.54746283 36.95330029 36.62031089 42.02950213 41.69539481 C46.15588204 45.82082211 50.28384223 49.9446615 54.41290855 54.06739998 C66.13094081 65.76784035 77.84479273 77.4724428 89.55328123 89.1824336 C90.18337176 89.81260405 90.8134623 90.44277449 91.46264648 91.09204102 C92.09350868 91.72298497 92.72437087 92.35392892 93.37435009 93.00399239 C103.60914166 103.23959768 113.85388578 113.465177 124.1031603 123.6862781 C134.63822567 134.19261334 145.16581321 144.70639059 155.68565959 155.22796494 C161.58754293 161.13051183 167.4924584 167.02994945 173.40543556 172.92138481 C178.43650997 177.93424644 183.4605944 182.95398588 188.4757788 187.98274689 C191.03329029 190.54678567 193.59389399 193.10751706 196.16333961 195.65960121 C198.95088769 198.42850717 201.72272221 201.21281284 204.49324036 203.99876404 C205.3042219 204.79945846 206.11520344 205.60015287 206.95076019 206.42511076 C213.30213957 212.85496836 217.59640423 219.14840379 218.15234375 228.4140625 C217.82404146 233.98678346 216.04750829 238.72185284 212.30078125 242.890625 C206.80518933 247.48329005 200.75436983 249.18134412 193.64453125 248.91015625 C183.92258393 247.42090786 177.22267125 238.36654657 170.61964417 231.71298218 C169.81469904 230.90606922 169.00975392 230.09915626 168.18041652 229.26779139 C165.50143101 226.58112721 162.82606214 223.89089068 160.15063477 221.20068359 C158.22373802 219.26636059 156.29603421 217.33284272 154.36831665 215.39933777 C150.22603792 211.24398097 146.08539239 207.08700271 141.9456501 202.92911911 C135.3980176 196.35318461 128.84453045 189.78310156 122.2900238 183.21401978 C120.04388008 180.96275269 117.79776175 178.71146026 115.55164242 176.46016884 C114.99044464 175.89768503 114.42924686 175.33520122 113.85104309 174.75567245 C107.4743594 168.36427887 101.09856615 161.97199751 94.72338867 155.57910156 C94.14112237 154.99522052 93.55885606 154.41133947 92.95894533 153.80976506 C83.51688936 144.34115551 74.08045767 134.8669571 64.64562572 125.39115004 C54.94474627 115.64850092 45.2361918 105.91354553 35.52092594 96.1852423 C29.5359752 90.19170987 23.55730088 84.19205306 17.58661842 78.18430604 C13.49452427 74.06789022 9.39512402 69.95884504 5.28995795 65.85546564 C2.92417512 63.49025909 0.56294468 61.12094056 -1.79186058 58.74477577 C-4.34961202 56.16483586 -6.91947453 53.59758336 -9.49266052 51.03305054 C-10.22750481 50.28587277 -10.96234909 49.538695 -11.71946138 48.76887548 C-16.96910801 43.57439323 -22.6227877 38.91642546 -30.00390625 37.37109375 C-30.84824219 37.39300781 -31.69257813 37.41492187 -32.5625 37.4375 C-33.40941406 37.43621094 -34.25632813 37.43492188 -35.12890625 37.43359375 C-42.46327767 38.88051056 -47.67257227 43.08312552 -52.80847168 48.28034973 C-53.76202537 49.22136843 -53.76202537 49.22136843 -54.73484278 50.18139762 C-56.84775312 52.27145543 -58.94623125 54.37540784 -61.04492188 56.47973633 C-62.56252231 57.98699839 -64.08094612 59.49343181 -65.60012817 60.99909973 C-69.71250231 65.08048003 -73.81195741 69.17460333 -77.90823174 73.27213502 C-81.32968113 76.69275323 -84.7568194 80.1076445 -88.18378305 83.52273673 C-96.26514277 91.57674439 -104.33545849 99.64170468 -112.39941406 107.71313477 C-120.72165078 116.04262384 -129.06404881 124.35152942 -137.41627455 132.65093786 C-144.58815819 139.7790985 -151.74650153 146.92066268 -158.89428759 154.07298678 C-163.16303499 158.34405944 -167.43696741 162.60960533 -171.72434998 166.86197853 C-175.75203114 170.85779324 -179.76260195 174.87001554 -183.76052475 178.89559746 C-185.23151265 180.37105365 -186.70851813 181.84053807 -188.19185257 183.30358124 C-190.21361027 185.29953987 -192.21266189 187.31578743 -194.20739746 189.33869934 C-194.80114654 189.91478701 -195.39489562 190.49087468 -196.0066371 191.08441955 C-198.94957973 194.11819112 -199.92271676 195.46681297 -200.54953766 199.79133129 C-200.36819023 200.85019197 -200.1868428 201.90905264 -200 203 C-196.74184419 205.17210388 -195.84573865 205.25055543 -192.08010674 205.25333309 C-191.05904898 205.25894849 -190.03799122 205.26456388 -188.98599231 205.27034944 C-187.86082206 205.26636835 -186.73565181 205.26238726 -185.5763855 205.25828552 C-184.38369147 205.26196123 -183.19099745 205.26563693 -181.96216118 205.26942402 C-178.64557975 205.27769677 -175.32921343 205.27702567 -172.01263857 205.27269709 C-168.43783087 205.27022519 -164.86305121 205.27928378 -161.28825378 205.28707886 C-155.0906616 205.29913618 -148.89309515 205.30423246 -142.69549179 205.30496025 C-133.72494438 205.306285 -124.75445949 205.3213895 -115.78393413 205.34045542 C-101.21761746 205.37131651 -86.65129921 205.3954715 -72.08496094 205.41333008 C-70.77667169 205.4149391 -70.77667169 205.4149391 -69.44195236 205.41658062 C-59.71689785 205.42839399 -49.9918427 205.43859943 -40.26678467 205.44702148 C-36.74361164 205.45009519 -33.22043862 205.45318402 -29.69726562 205.45629883 C-28.39329627 205.45744684 -28.39329627 205.45744684 -27.06298409 205.45861804 C-12.55911034 205.47170744 1.94471833 205.49635991 16.44855869 205.53004223 C25.39365572 205.55031852 34.33865626 205.5606235 43.28377645 205.55805302 C49.41747722 205.55701657 55.55110183 205.56667703 61.68477602 205.58469205 C65.22208042 205.59472 68.75921628 205.59988368 72.29652977 205.59192467 C76.13594917 205.5833889 79.97508689 205.59800787 83.81448364 205.61473083 C84.92626956 205.60851902 86.03805548 205.6023072 87.18353188 205.59590715 C94.44818396 205.65353041 101.48191053 206.19257635 107.33984375 210.8671875 C107.86707031 211.52976563 108.39429688 212.19234375 108.9375 212.875 C109.48277344 213.53242188 110.02804687 214.18984375 110.58984375 214.8671875 C114.38972688 220.61437917 114.91603367 226.26668031 114 233 C111.47568009 239.42455667 106.75874425 243.65078484 101 247.25 C94.58793999 249.65452251 87.63757333 249.14279459 80.90086365 249.13371277 C79.67167664 249.13597833 78.44248963 249.13824388 77.17605454 249.14057809 C73.77141582 249.14580907 70.36682996 249.14656368 66.96219099 249.14538372 C63.287163 249.14517944 59.61214285 249.1507011 55.93711853 249.15544128 C48.73860034 249.16374364 41.54009033 249.16649597 34.34156775 249.16705366 C28.4870344 249.16752917 22.63250376 249.16958565 16.77797127 249.17275429 C0.16733883 249.18156095 -16.44328715 249.18617383 -33.05392195 249.18542381 C-33.94918679 249.18538386 -34.84445163 249.1853439 -35.7668457 249.18530273 C-36.66320832 249.18526185 -37.55957094 249.18522097 -38.48309606 249.18517885 C-52.99776184 249.18477273 -67.51240165 249.19433375 -82.02705992 249.2084411 C-96.94234817 249.22282299 -111.85762376 249.22971024 -126.77291912 249.22884732 C-135.14186795 249.22851591 -143.51078956 249.23123862 -151.87973213 249.24202538 C-159.0081129 249.25115441 -166.13645413 249.25328608 -173.26483823 249.24651595 C-176.89782115 249.24326239 -180.53072831 249.24315159 -184.16370392 249.2518692 C-188.11316325 249.26124817 -192.06251335 249.25492754 -196.01197815 249.24723816 C-197.14508488 249.25238172 -198.27819161 249.25752529 -199.4456349 249.26282471 C-214.73593932 249.19736295 -227.85107727 247.08931978 -239.375 236.375 C-248.14847328 226.98089517 -252.63126268 215.25667304 -252.24609375 202.41015625 C-250.62339296 186.5179914 -242.1714522 174.9839601 -230.28705025 164.78369904 C-226.31514709 161.32084456 -222.56952792 157.6893911 -218.86813354 153.94128418 C-218.19738993 153.26645603 -217.52664631 152.59162787 -216.83557713 151.89635038 C-214.61045461 149.65659934 -212.3890107 147.41323555 -210.16748047 145.16992188 C-208.56369344 143.55438101 -206.95962611 141.93911836 -205.3553009 140.32411194 C-201.91065219 136.85603423 -198.46729906 133.386677 -195.02474594 129.91651917 C-189.57322056 124.42268719 -184.11454669 118.93599648 -178.65408325 113.4510498 C-177.73066348 112.52344172 -176.80724371 111.59583364 -175.85584152 110.64011621 C-173.96811897 108.74389056 -172.08037601 106.84768525 -170.1926024 104.95151043 C-165.35117771 100.08848212 -160.51013887 95.2250702 -155.66992188 90.36083984 C-155.1846668 89.87318309 -154.69941172 89.38552634 -154.19945194 88.88309211 C-146.34084004 80.984902 -138.49322928 73.07586132 -130.64916275 65.16322869 C-122.57321001 57.01728799 -114.48354388 48.88517087 -106.38231385 40.76436472 C-101.84316219 36.21326511 -97.31051374 31.65609346 -92.79302597 27.08348083 C-88.54159409 22.78038759 -84.27384869 18.49416099 -79.99339867 14.21993828 C-78.43212883 12.65516668 -76.87679232 11.08444707 -75.32815361 9.50717354 C-53.51988792 -12.68552992 -26.35733343 -21.95587375 0 0 Z " fill="#0C3251" transform="translate(252,13)"/>
<path d="M0 0 C0.74625687 -0.00350607 1.49251374 -0.00701215 2.26138446 -0.01062447 C4.76999868 -0.01995205 7.27838146 -0.01501168 9.78700542 -0.01015663 C11.60053325 -0.01389221 13.41405946 -0.01849336 15.22758311 -0.02388728 C20.21755233 -0.03614414 25.20745465 -0.03585365 30.1974355 -0.03349853 C35.57656621 -0.03309104 40.95567528 -0.04412299 46.33479595 -0.05361366 C56.87592916 -0.0702393 67.41704001 -0.07572391 77.95818523 -0.07683842 C86.52493518 -0.07778814 95.09167773 -0.08189463 103.65842533 -0.08823967 C127.93687553 -0.10585624 152.21530804 -0.11507787 176.49376468 -0.11357872 C177.80311393 -0.11349881 179.11246318 -0.1134189 180.46148968 -0.11333656 C182.42790644 -0.11321392 182.42790644 -0.11321392 184.43404879 -0.1130888 C205.68382931 -0.11227575 226.93353897 -0.13141707 248.18329898 -0.1596133 C269.9927403 -0.18832425 291.80214703 -0.20215458 313.61160773 -0.20042574 C325.85985028 -0.19976123 338.10801854 -0.20528042 350.35624409 -0.22678185 C360.78410485 -0.24497008 371.21185766 -0.24936036 381.63972739 -0.235763 C386.96120402 -0.2292215 392.2824734 -0.22915885 397.60393047 -0.2464695 C402.47520673 -0.26215289 407.34611059 -0.25938503 412.21737751 -0.24190123 C413.9798099 -0.23882089 415.74226975 -0.2425025 417.50466976 -0.25362138 C435.51411439 -0.35971869 435.51411439 -0.35971869 442.03250533 5.63375533 C446.38606858 10.36820234 448.11556583 15.63695111 447.90655804 22.04242516 C447.01013331 27.39266535 444.68832983 32.35614974 440.59796429 35.96820641 C434.60873865 39.89296411 429.27507577 40.38194188 422.16742611 40.38869667 C421.43159908 40.3907493 420.69577204 40.39280194 419.93764722 40.39491677 C417.46455985 40.40058477 414.9915282 40.39912977 412.51843548 40.3977108 C410.73037043 40.40029454 408.94230595 40.40330773 407.15424228 40.4067142 C402.23462862 40.41478626 397.31502955 40.41657389 392.39541006 40.41731167 C387.09193213 40.41916185 381.78846177 40.42670897 376.48498821 40.43344688 C364.8858774 40.44703184 353.28677004 40.45305508 341.68765259 40.45745754 C334.44661225 40.46021949 327.20557324 40.46445674 319.96453381 40.46896172 C299.92015574 40.48115421 279.87577875 40.49145381 259.83139706 40.49483681 C257.90689163 40.49516616 257.90689163 40.49516616 255.9435073 40.49550216 C254.65741951 40.49572044 253.37133171 40.49593871 252.04627156 40.49616361 C249.44013007 40.49660707 246.83398859 40.49705364 244.2278471 40.49750328 C242.93510859 40.49772471 241.64237008 40.49794614 240.31045768 40.49817428 C219.35882733 40.50212313 198.40723175 40.51957991 177.45561484 40.5428628 C155.9501457 40.5665685 134.44469402 40.57903829 112.93921161 40.58020473 C100.86253482 40.58112188 88.78590333 40.58688458 76.70923901 40.60502434 C66.42671645 40.6204147 56.14425319 40.62555203 45.86172131 40.61728624 C40.61508653 40.61337608 35.36857122 40.61432726 30.1219511 40.62834358 C25.31791182 40.64106026 20.51408206 40.63990457 15.71004316 40.62775287 C13.97316446 40.62579202 12.23627103 40.62889221 10.49941304 40.63759723 C-9.03014318 40.72927241 -9.03014318 40.72927241 -15.80437946 35.42523766 C-20.34254436 29.7996885 -22.76389866 25.72378562 -22.33953571 18.31976891 C-21.55158011 12.22685642 -19.54971228 8.23551335 -15.02703571 3.94476891 C-10.06037156 0.67403885 -5.87088876 -0.03495067 0 0 Z " fill="#0C3251" transform="translate(22.4645357131958,404.74273109436035)"/>
<path d="M0 0 C0.7496135 -0.00235223 1.49922699 -0.00470446 2.27155605 -0.00712797 C4.80355278 -0.01382737 7.3354983 -0.01335947 9.86750317 -0.01294994 C11.69310354 -0.01624797 13.51870318 -0.01997341 15.34430188 -0.02409142 C20.37683845 -0.03412627 25.40936308 -0.03783059 30.44190824 -0.04048073 C35.86329398 -0.04437931 41.28467023 -0.05395787 46.70604992 -0.0626936 C59.8054215 -0.08246925 72.90479387 -0.092525 86.00417665 -0.10142139 C92.16836856 -0.10580194 98.3325596 -0.1111693 104.49675083 -0.11641026 C124.97940709 -0.13342262 145.4620628 -0.14791818 165.94472504 -0.155159 C171.26177312 -0.15706898 176.57882119 -0.1589893 181.89586926 -0.16094494 C182.8867424 -0.16130516 182.8867424 -0.16130516 183.89763319 -0.16167267 C204.65553361 -0.16932244 225.41338256 -0.19099832 246.17125988 -0.22246838 C269.48251051 -0.25779403 292.79372384 -0.27941066 316.10500211 -0.28280324 C328.45158417 -0.2849714 340.79808491 -0.29376498 353.14464283 -0.31926441 C363.65641233 -0.34092398 374.16808076 -0.34904521 384.67987005 -0.33929763 C390.04564427 -0.33473933 395.41120974 -0.33672783 400.7769556 -0.35605907 C405.68644155 -0.37359428 410.59556498 -0.37277187 415.50505426 -0.35716178 C417.28366421 -0.354771 419.06229864 -0.35918482 420.84087101 -0.37099043 C423.25459763 -0.38602306 425.66702533 -0.37649784 428.08071899 -0.36076355 C428.7748244 -0.37098576 429.46892981 -0.38120796 430.18406871 -0.39173993 C435.85621608 -0.31077694 439.29969467 1.82862453 443.33849621 5.66156483 C447.4060987 10.69034736 449.19406949 14.44949666 448.97130871 21.02093983 C448.21189032 27.64747773 445.77565707 31.71262328 440.64318371 35.90765858 C435.96058542 38.90834401 431.72780334 39.4240137 426.26458549 39.39148998 C425.14520019 39.39674909 425.14520019 39.39674909 424.00320104 39.40211445 C421.49458681 39.41144203 418.98620404 39.40650166 416.47758007 39.40164661 C414.66405225 39.40538219 412.85052603 39.40998334 411.03700238 39.41537726 C406.04703316 39.42763412 401.05713085 39.42734363 396.06715 39.42498851 C390.68801928 39.42458102 385.30891022 39.43561297 379.92978954 39.44510365 C369.38865633 39.46172928 358.84754549 39.4672139 348.30640026 39.4683284 C339.73965032 39.46927812 331.17290777 39.47338462 322.60616016 39.47972965 C298.32770996 39.49734623 274.04927746 39.50656786 249.77082082 39.5050687 C248.46147157 39.50498879 247.15212232 39.50490888 245.80309582 39.50482655 C244.49215131 39.50474478 243.1812068 39.50466302 241.8305367 39.50457878 C220.58075619 39.50376574 199.33104653 39.52290705 178.08128651 39.55110328 C156.2718452 39.57981423 134.46243846 39.59364456 112.65297776 39.59191573 C100.40473522 39.59125121 88.15656696 39.5967704 75.90834141 39.61827183 C65.48048065 39.63646006 55.05272784 39.64085034 44.6248581 39.62725298 C39.30338147 39.62071148 33.98211209 39.62064883 28.66065502 39.63795948 C23.78937876 39.65364287 18.9184749 39.65087502 14.04720799 39.63339122 C12.2847756 39.63031088 10.52231574 39.63399248 8.75991573 39.64511137 C-9.11784727 39.75043291 -9.11784727 39.75043291 -15.76791984 33.79313505 C-19.64647452 29.65153161 -21.23051936 25.30748163 -21.30212879 19.67718983 C-20.92245756 13.34617205 -19.46111266 9.20753538 -14.77869129 4.69672108 C-9.91904296 0.44150661 -6.20985849 -0.01314037 0 0 Z " fill="#EC2224" transform="translate(21.270878791809082,312.86577892303467)"/>
<path d="M0 0 C2.76422046 0.01072537 5.52779127 0.00004294 8.29199219 -0.01269531 C32.95999938 -0.03326994 54.24958737 4.07786781 72.89355469 21.21386719 C90.12913131 38.85340264 93.14250481 65.64458655 93.07324219 89.16357422 C92.62509961 112.77293161 87.76695691 136.83268051 70.76855469 154.26074219 C55.4959261 167.67368998 36.78208272 172.37825077 16.92871094 172.46386719 C15.88895615 172.46956726 14.84920135 172.47526733 13.77793884 172.48114014 C11.58007819 172.49055947 9.38220361 172.49711188 7.18432617 172.50097656 C3.87294802 172.51062018 0.56220773 172.54164788 -2.74902344 172.57324219 C-27.30069411 172.69729536 -47.66069875 169.18308988 -66.46972656 152.24511719 C-76.11073136 142.43562881 -81.3306212 128.45185815 -84.23144531 115.26074219 C-84.45574219 114.27074219 -84.68003906 113.28074219 -84.91113281 112.26074219 C-89.9914982 84.4231236 -87.32863911 52.39279246 -72.19238281 28.00292969 C-61.11601009 12.51365947 -44.53900634 4.21832739 -26.07128906 1.14355469 C-17.39360576 -0.02407408 -8.74432758 -0.04029644 0 0 Z M-44.54394531 44.32324219 C-54.27447357 56.03919136 -55.62170027 71.91871909 -55.54394531 86.57324219 C-55.53975586 87.66121094 -55.53556641 88.74917969 -55.53125 89.87011719 C-55.32168519 104.86960676 -52.94237638 119.97856147 -42.23144531 131.26074219 C-36.81300243 135.77951908 -31.04543373 138.53237651 -24.23144531 140.26074219 C-23.5659668 140.43202637 -22.90048828 140.60331055 -22.21484375 140.77978516 C-17.93013588 141.47052775 -13.6905159 141.46413799 -9.35644531 141.49902344 C-7.91507202 141.51113106 -7.91507202 141.51113106 -6.44458008 141.52348328 C-4.41049993 141.53729302 -2.37639692 141.54802904 -0.34228516 141.5559082 C1.71735528 141.56738477 3.776967 141.58776731 5.83642578 141.61743164 C21.51154458 141.84294573 36.32742396 141.65119309 48.63183594 130.58496094 C60.50334289 118.30672141 62.1106616 99.81790107 61.92089844 83.56152344 C61.21580504 68.28449975 59.06617411 52.57684594 47.80371094 41.29199219 C38.24897934 33.13677824 26.34787244 31.12426775 14.14355469 31.05761719 C13.31960205 31.05191711 12.49564941 31.04621704 11.64672852 31.04034424 C9.90528634 31.03092904 8.16382662 31.02437415 6.42236328 31.02050781 C3.8043553 31.01087393 1.18715771 30.97984766 -1.43066406 30.94824219 C-17.70794494 30.84442733 -32.52036909 32.12054378 -44.54394531 44.32324219 Z " fill="#EC2224" transform="translate(1559.2314453125,130.7392578125)"/>
<path d="M0 0 C1.41038188 -0.00271423 2.82076233 -0.00627758 4.23114014 -0.01062012 C8.04583856 -0.01970342 11.86042824 -0.01621445 15.67512846 -0.00986195 C19.68923437 -0.00477092 23.70333144 -0.0095029 27.71743774 -0.01263428 C34.46756646 -0.01626911 41.21765138 -0.01149189 47.96777344 -0.00195312 C55.72700684 0.00888636 63.48613474 0.00543684 71.2453655 -0.00560594 C77.93960471 -0.01474561 84.63381253 -0.01593044 91.32805598 -0.0107286 C95.31134615 -0.00763961 99.29458715 -0.00711263 103.27787399 -0.01380157 C162.01621535 -0.09871151 162.01621535 -0.09871151 180.22509766 16.82128906 C194.40179887 31.87699082 195.43652384 48.98679093 195.26806641 68.55957031 C195.26245903 70.49154834 195.25819434 72.42353068 195.25520325 74.35551453 C195.24384425 79.39757426 195.21445587 84.43936753 195.18109131 89.48132324 C195.15019571 94.64343666 195.13665659 99.80559387 195.12158203 104.96777344 C195.08957607 115.06491351 195.03688306 125.16178726 194.97509766 135.25878906 C185.73509766 135.25878906 176.49509766 135.25878906 166.97509766 135.25878906 C166.96575195 132.80207764 166.95640625 130.34536621 166.94677734 127.81420898 C166.91288996 119.66370721 166.85727609 111.5134555 166.79119492 103.36315441 C166.75181917 98.42543976 166.71958233 93.4879008 166.70410156 88.55004883 C166.68886949 83.77764781 166.65430872 79.00573015 166.60678864 74.2335453 C166.59204207 72.42010023 166.58406054 70.60658612 166.58321381 68.79308128 C166.67467029 52.64211983 166.67467029 52.64211983 159.72509766 38.38378906 C158.36384766 37.33191406 158.36384766 37.33191406 156.97509766 36.25878906 C156.45689453 35.83082031 155.93869141 35.40285156 155.40478516 34.96191406 C140.42175665 23.93544287 110.66505369 27.64536685 95.97509766 27.25878906 C95.97509766 62.89878906 95.97509766 98.53878906 95.97509766 135.25878906 C86.73509766 135.25878906 77.49509766 135.25878906 67.97509766 135.25878906 C67.97509766 99.61878906 67.97509766 63.97878906 67.97509766 27.25878906 C56.77572266 27.40316406 45.57634766 27.54753906 34.03759766 27.69628906 C28.72613647 27.7609436 28.72613647 27.7609436 23.30737305 27.8269043 C20.14329375 27.87014036 20.14329375 27.87014036 16.97923279 27.91468811 C15.56596692 27.93395485 14.1526736 27.95126593 12.73936462 27.96705627 C10.60309021 27.991299 8.46698413 28.02167616 6.33081055 28.0534668 C5.12501846 28.06901108 3.91922638 28.08455536 2.67689514 28.10057068 C0.05875389 27.95361289 0.05875389 27.95361289 -1.02490234 29.25878906 C-1.13236546 30.63708721 -1.17169565 32.02077957 -1.18312073 33.4032135 C-1.19780396 34.74312599 -1.19780396 34.74312599 -1.21278381 36.11010742 C-1.21853928 37.09769043 -1.22429474 38.08527344 -1.23022461 39.1027832 C-1.24507401 40.65381996 -1.24507401 40.65381996 -1.26022339 42.2361908 C-1.29194447 45.67208526 -1.31663759 49.10799357 -1.34130859 52.54394531 C-1.36186897 54.91906606 -1.38286519 57.29418308 -1.40428162 59.66929626 C-1.45959696 65.93450911 -1.50896437 72.1997555 -1.55712891 78.46502686 C-1.60727502 84.85269166 -1.66299696 91.24030749 -1.71826172 97.62792969 C-1.82595897 110.17150929 -1.92686314 122.71513025 -2.02490234 135.25878906 C-11.26490234 135.25878906 -20.50490234 135.25878906 -30.02490234 135.25878906 C-30.09275456 119.9158377 -30.14796264 104.5729545 -30.18033886 89.22989082 C-30.19577464 82.10502863 -30.2168008 74.98026662 -30.2512207 67.85546875 C-30.28122429 61.64184367 -30.30050122 55.42829119 -30.30716783 49.21459568 C-30.31106166 45.92776207 -30.32174322 42.64118321 -30.34209251 39.35440445 C-30.3639583 35.67543621 -30.36686536 31.99689415 -30.36547852 28.31787109 C-30.37626434 27.24108597 -30.38705017 26.16430084 -30.39816284 25.05488586 C-30.36774876 17.56912319 -29.95697826 9.60973297 -24.83740234 3.75878906 C-16.95539429 -0.44494857 -8.71298297 -0.02696459 0 0 Z " fill="#0C3251" transform="translate(2279.02490234375,167.7412109375)"/>
<path d="M0 0 C1.39163612 -0.00021904 1.39163612 -0.00021904 2.81138611 -0.0004425 C5.85214648 0.00024946 8.89284419 0.00800809 11.93359375 0.01586914 C14.05208299 0.01773587 16.17057267 0.01915857 18.2890625 0.02015686 C23.84565436 0.02396198 29.4022198 0.03377504 34.95880127 0.04486084 C40.63659304 0.05511818 46.31438912 0.05966372 51.9921875 0.06469727 C63.11850302 0.07539921 74.24479205 0.09297966 85.37109375 0.11352539 C85.37109375 10.34352539 85.37109375 20.57352539 85.37109375 31.11352539 C82.63650879 31.12810791 79.90192383 31.14269043 77.08447266 31.15771484 C68.02396419 31.20817398 58.96362555 31.27478892 49.90328407 31.3492403 C44.41291411 31.3938645 38.92261699 31.43313812 33.43212891 31.45996094 C28.12813736 31.48607324 22.82442733 31.52653156 17.52061081 31.57671165 C15.50258272 31.59332686 13.48450599 31.60487429 11.46641922 31.6111393 C8.62786979 31.62083874 5.79003199 31.64896715 2.95166016 31.68115234 C2.12734497 31.67971725 1.30302979 31.67828217 0.45373535 31.67680359 C-6.71417887 31.7908767 -13.78130501 32.93238401 -19.56640625 37.36352539 C-24.24307721 43.59908668 -25.69434024 49.46394874 -24.62890625 57.11352539 C-23.26689599 61.59969478 -21.42974889 64.42188856 -17.87890625 67.48852539 C-11.16511803 70.8454195 -4.73617406 71.41301126 2.6328125 71.43237305 C3.52155563 71.44241867 4.41029877 71.45246429 5.32597351 71.46281433 C8.23684089 71.49347953 11.14761701 71.51063484 14.05859375 71.52758789 C16.08741024 71.54631296 18.11621905 71.56588736 20.14501953 71.58627319 C25.46481791 71.63745891 30.78464151 71.67715704 36.10455322 71.7144165 C41.54111905 71.75454138 46.97758123 71.80559493 52.4140625 71.85571289 C63.06634045 71.95231159 73.71866167 72.03575657 84.37109375 72.11352539 C84.37109375 81.35352539 84.37109375 90.59352539 84.37109375 100.11352539 C81.63650879 100.12810791 78.90192383 100.14269043 76.08447266 100.15771484 C67.02396419 100.20817398 57.96362555 100.27478892 48.90328407 100.3492403 C43.41291411 100.3938645 37.92261699 100.43313812 32.43212891 100.45996094 C27.12813736 100.48607324 21.82442733 100.52653156 16.52061081 100.57671165 C14.50258272 100.59332686 12.48450599 100.60487429 10.46641922 100.6111393 C7.62786979 100.62083874 4.79003199 100.64896715 1.95166016 100.68115234 C1.12734497 100.67971725 0.30302979 100.67828217 -0.54626465 100.67680359 C-7.71417887 100.7908767 -14.78130501 101.93238401 -20.56640625 106.36352539 C-24.71383408 111.89342917 -26.592079 117.19979224 -25.62890625 124.11352539 C-24.30239842 129.66634886 -22.2177227 133.54444593 -17.62890625 137.11352539 C-11.5352697 139.86247343 -6.54582045 140.55686112 0.09179688 140.54589844 C1.02930786 140.55609009 1.96681885 140.56628174 2.93273926 140.57678223 C6.00600262 140.60677687 9.07895359 140.6161575 12.15234375 140.62524414 C14.29326401 140.64210084 16.43417442 140.66025241 18.57507324 140.67964172 C24.19080532 140.72704001 29.80649749 140.75691523 35.42236328 140.78308105 C41.1605619 140.81293789 46.8986232 140.85945063 52.63671875 140.90454102 C63.88145418 140.99045857 75.12617558 141.05631463 86.37109375 141.11352539 C86.37109375 151.34352539 86.37109375 161.57352539 86.37109375 172.11352539 C73.57450918 172.18153667 60.77804638 172.2364769 47.98132133 172.26896191 C42.03809726 172.28455986 36.09500418 172.30569008 30.15185547 172.33984375 C24.40708265 172.37264754 18.66243516 172.39042245 12.91757584 172.39815712 C10.73533279 172.40366311 8.55309593 172.41441401 6.37090683 172.43071556 C-14.31036666 172.57894409 -32.50986615 171.14154876 -48.34765625 156.52758789 C-57.56508272 146.88691224 -59.05182368 133.95576565 -58.83984375 121.22680664 C-58.4314465 110.32865029 -55.08750654 101.60055589 -47.37890625 93.85180664 C-43.97849052 90.73662315 -40.8582487 88.01768636 -36.62890625 86.11352539 C-37.28117188 85.68942383 -37.9334375 85.26532227 -38.60546875 84.82836914 C-48.4126104 78.24688028 -54.72022025 71.64586769 -57.3515625 59.88305664 C-59.64353351 46.20712369 -59.14825659 31.51781606 -50.87890625 19.80102539 C-40.57146276 7.38055599 -27.69266266 2.24653783 -11.89556885 0.32345772 C-7.93190797 -0.04364613 -3.977711 -0.01663758 0 0 Z " fill="#0C3251" transform="translate(800.62890625,130.886474609375)"/>
<path d="M0 0 C2.11277125 0.00373654 4.22554426 0.00658048 6.33831787 0.00857544 C11.86200867 0.0161614 17.38559199 0.03576591 22.90924072 0.0579834 C28.56057278 0.0785511 34.21192244 0.08760038 39.86328125 0.09765625 C50.92453365 0.11901715 61.98567852 0.1541575 73.046875 0.1953125 C73.046875 10.4253125 73.046875 20.6553125 73.046875 31.1953125 C70.27676025 31.20989502 67.50664551 31.22447754 64.65258789 31.23950195 C55.48031463 31.28993286 46.30820961 31.35654299 37.13610172 31.43102741 C31.57732161 31.47567539 26.01861386 31.51494388 20.4597168 31.54174805 C15.09089258 31.56783647 9.72234762 31.60827826 4.35369682 31.65849876 C2.30972211 31.67513001 0.26569913 31.68666752 -1.77833366 31.69292641 C-4.65061302 31.7026082 -7.52218395 31.73071621 -10.39428711 31.76293945 C-11.23154831 31.76150436 -12.06880951 31.76006927 -12.93144226 31.7585907 C-18.99827616 31.85428572 -25.6506851 32.55647641 -30.54835415 36.46999073 C-34.33229466 40.62900961 -35.91347529 45.07785385 -35.984375 50.65234375 C-35.65258464 56.18494802 -34.71595539 59.92399152 -30.953125 64.1953125 C-22.84918128 71.14154998 -11.86266119 70.48550092 -1.74609375 70.50390625 C0.80534083 70.5290658 3.35677307 70.55446383 5.90820312 70.58007812 C9.88386425 70.60876113 13.8594848 70.63281302 17.83520508 70.65161133 C21.70414686 70.67342642 25.57262723 70.71287201 29.44140625 70.75390625 C31.19672417 70.75407997 31.19672417 70.75407997 32.98750305 70.7542572 C48.48828454 70.93756533 63.5085574 74.82053652 75.0078125 85.734375 C86.14898089 99.18061271 87.14033419 115.46748973 86.046875 132.1953125 C84.50037244 143.46786632 79.53327559 153.52310532 71.046875 161.1953125 C55.05696691 173.17551886 36.89560463 172.76185718 17.859375 172.5859375 C15.46086096 172.57846119 13.06234074 172.57277485 10.66381836 172.56878662 C4.40355044 172.55363975 -1.85633607 172.51445398 -8.11645508 172.4699707 C-14.52550093 172.42877989 -20.93460944 172.41072511 -27.34375 172.390625 C-39.88040139 172.34794766 -52.41667156 172.27768911 -64.953125 172.1953125 C-64.953125 161.9653125 -64.953125 151.7353125 -64.953125 141.1953125 C-60.24482422 141.18129395 -60.24482422 141.18129395 -55.44140625 141.16699219 C-45.059726 141.13319454 -34.67824395 141.07762984 -24.29672241 141.01140976 C-18.0036313 140.97193479 -11.71068012 140.93974617 -5.41748047 140.92431641 C0.65811383 140.90915031 6.73332342 140.87470464 12.80874634 140.82700348 C15.12428439 140.81218938 17.43987736 140.80427147 19.75546265 140.80342865 C23.00405689 140.80105745 26.25158929 140.77396354 29.5 140.74121094 C30.45306534 140.7462413 31.40613068 140.75127167 32.38807678 140.75645447 C39.67489778 140.64311513 45.24881979 139.06700074 50.421875 133.7578125 C54.26452397 127.69825066 54.83697413 122.24694726 54.046875 115.1953125 C52.70529159 110.60648744 50.8587903 107.86602514 47.171875 104.8203125 C39.88205423 101.0296057 33.56860035 100.88796541 25.484375 100.8515625 C24.26089355 100.8369397 23.03741211 100.82231689 21.77685547 100.80725098 C17.86689526 100.7608342 13.95698355 100.7266242 10.046875 100.6953125 C4.9216971 100.65382084 -0.20314472 100.59993443 -5.328125 100.5390625 C-6.4838501 100.5337854 -7.6395752 100.5285083 -8.83032227 100.52307129 C-26.52246475 100.311315 -42.53424942 97.84814192 -55.81640625 85.45703125 C-65.01397435 75.94434305 -68.03193723 62.97284558 -67.984375 50.05078125 C-67.63178966 36.03116612 -64.74323887 23.76322471 -54.953125 13.1953125 C-39.45348742 -0.60784733 -19.51465769 -0.10195421 0 0 Z " fill="#EC2224" transform="translate(1361.953125,130.8046875)"/>
<path d="M0 0 C1.77360879 0.00374015 3.54721968 0.00658237 5.3208313 0.00857544 C9.94030683 0.01613313 14.55965226 0.03571192 19.17907715 0.0579834 C23.91233563 0.0786134 28.64561557 0.08761347 33.37890625 0.09765625 C42.63027406 0.118967 51.881512 0.15408284 61.1328125 0.1953125 C61.1328125 10.4253125 61.1328125 20.6553125 61.1328125 31.1953125 C58.84327637 31.20989502 56.55374023 31.22447754 54.19482422 31.23950195 C46.57920864 31.29013126 38.96379148 31.35677378 31.34837151 31.43102741 C26.73698594 31.47550939 22.12568424 31.51481254 17.51416016 31.54174805 C13.05302652 31.56800457 8.59221955 31.60855957 4.13129044 31.65849876 C2.44034046 31.67501797 0.74933419 31.68662428 -0.94168472 31.69292641 C-16.3930029 31.75626402 -31.5379833 32.50851945 -43.6171875 43.3203125 C-56.76109908 57.46827288 -55.6361297 79.14405608 -55.04003906 97.04931641 C-54.39868437 108.72233416 -51.08223446 122.50042009 -42.1875 130.75390625 C-32.30187875 138.71401493 -21.80078813 140.34344108 -9.46484375 140.3984375 C-8.46891708 140.40413757 -7.47299042 140.40983765 -6.44688416 140.41571045 C-4.34651747 140.42512936 -2.24613621 140.43168203 -0.14575195 140.43554688 C3.05608939 140.44526931 6.25729296 140.47632932 9.45898438 140.5078125 C11.50520454 140.51434185 13.55142928 140.51959259 15.59765625 140.5234375 C16.54889877 140.5357843 17.5001413 140.5481311 18.48020935 140.56085205 C25.51999283 140.53740512 30.30084689 139.51237527 35.8828125 134.9453125 C41.23422144 128.40470157 41.67905166 122.90888307 41.484375 114.58203125 C40.87184844 108.68135871 38.90942299 105.07062357 34.8828125 100.8203125 C28.51825313 97.05943651 21.58461892 96.87848693 14.3828125 96.78125 C13.48409424 96.76188385 12.58537598 96.7425177 11.65942383 96.7225647 C8.81731354 96.66326642 5.97516165 96.61658442 3.1328125 96.5703125 C1.19399374 96.53208683 -0.74480888 96.4930325 -2.68359375 96.453125 C-7.41136947 96.35606203 -12.13899423 96.27609998 -16.8671875 96.1953125 C-16.8671875 87.2853125 -16.8671875 78.3753125 -16.8671875 69.1953125 C-10.39320915 69.14914308 -3.9198132 69.10939511 2.55419922 69.08544922 C4.75181017 69.07545568 6.94940805 69.06185632 9.14697266 69.04443359 C46.03232158 68.75953994 46.03232158 68.75953994 59.1328125 81.1953125 C68.8951942 92.94173482 72.19307188 108.17497129 71.1328125 123.1953125 C69.96028944 135.74130925 67.57067844 146.56670149 59.1328125 156.1953125 C58.65457031 156.78957031 58.17632813 157.38382813 57.68359375 157.99609375 C49.65893597 167.1122667 37.24780999 171.55500213 25.37702942 172.38890076 C22.42540871 172.47366216 19.48017473 172.49874027 16.52734375 172.49609375 C15.44507004 172.50037888 14.36279633 172.504664 13.24772644 172.50907898 C10.96943863 172.51479041 8.6911326 172.51534623 6.4128418 172.51098633 C2.97216786 172.50783708 -0.46763578 172.53128985 -3.90820312 172.55664062 C-28.35676053 172.62836357 -48.43994705 168.98842956 -67.10546875 152.1796875 C-83.6160758 135.38054557 -87.27573552 109.44685717 -87.1796875 87.0078125 C-87.17786469 86.33032959 -87.17604187 85.65284668 -87.17416382 84.95483398 C-87.06822714 61.50383454 -83.26304271 37.48035112 -66.3046875 19.9453125 C-48.14319561 2.12567723 -24.23481021 -0.15219361 0 0 Z " fill="#0C3251" transform="translate(2146.8671875,130.8046875)"/>
<path d="M0 0 C10.23 0 20.46 0 31 0 C31 23.1 31 46.2 31 70 C59.71 70 88.42 70 118 70 C118 46.9 118 23.8 118 0 C128.23 0 138.46 0 149 0 C149 56.76 149 113.52 149 172 C138.77 172 128.54 172 118 172 C118 148.57 118 125.14 118 101 C89.29 101 60.58 101 31 101 C31 124.43 31 147.86 31 172 C20.77 172 10.54 172 0 172 C0 115.24 0 58.48 0 0 Z " fill="#0C3251" transform="translate(2688,131)"/>
<path d="M0 0 C9.24 0 18.48 0 28 0 C28 19.14 28 38.28 28 58 C32.31320313 57.97679687 36.62640625 57.95359375 41.0703125 57.9296875 C44.54842515 57.91679063 48.02653088 57.90595743 51.50465393 57.89649963 C55.15468284 57.88601704 58.80461612 57.87205222 62.45458984 57.84912109 C65.98188067 57.82710394 69.50907983 57.81537181 73.03643417 57.81024551 C75.01130959 57.80484874 76.98614905 57.78928435 78.96096802 57.77340698 C97.73994759 57.77111967 113.44963159 60.54966668 127.625 73.375 C140.02641444 87.08182649 144.1768456 102.73626171 145 121 C145.04125 121.77085937 145.0825 122.54171875 145.125 123.3359375 C145.65752509 142.83966881 141.9754914 163.58554138 128.25 178.25 C118.14665833 187.75902745 105.03755306 193.06470085 91.18505859 193.16113281 C90.06304047 193.17074036 88.94102234 193.1803479 87.78500366 193.19024658 C86.58493683 193.19449646 85.38487 193.19874634 84.1484375 193.203125 C82.89801666 193.20882507 81.64759583 193.21452515 80.35928345 193.22039795 C77.71490856 193.22983177 75.07064667 193.23673661 72.42626953 193.24023438 C69.73602686 193.24461218 67.04610613 193.25848266 64.35595703 193.28125 C60.4533528 193.31191503 56.55114923 193.32230533 52.6484375 193.328125 C51.46051605 193.3404718 50.2725946 193.3528186 49.04867554 193.36553955 C35.97420508 193.33114854 23.46677284 190.55986349 13.46875 181.6171875 C4.03622416 171.23137447 -0.13185312 157.43262772 -0.12025452 143.58389282 C-0.12162918 142.31352173 -0.12300385 141.04315063 -0.12442017 139.73428345 C-0.12088172 138.33929419 -0.11724692 136.94430518 -0.11352539 135.54931641 C-0.11324312 134.0706177 -0.11340204 132.59191884 -0.1139679 131.11322021 C-0.1142543 127.10955863 -0.10838291 123.10592712 -0.10139394 119.10227251 C-0.0951343 114.9142424 -0.09455453 110.72621156 -0.09336853 106.53817749 C-0.09026291 98.61227719 -0.08205989 90.68639072 -0.07201904 82.7604965 C-0.06083401 73.73513799 -0.05534143 64.70977882 -0.05032361 55.6844151 C-0.03987664 37.12293398 -0.02154072 18.5614718 0 0 Z M28 85 C27.90677442 92.63292328 27.83597114 100.26578654 27.79275131 107.8991518 C27.77199381 111.44477451 27.74389769 114.99000394 27.69824219 118.53540039 C27.64593045 122.62389616 27.62695724 126.71198745 27.609375 130.80078125 C27.58872986 132.05643387 27.56808472 133.31208649 27.54681396 134.60578918 C27.54455206 143.59290015 28.66255146 151.64277552 34.25 158.9375 C39.99048912 163.24286684 45.89946302 166.09110874 53.15087891 166.16113281 C53.95917145 166.17074036 54.76746399 166.1803479 55.60025024 166.19024658 C56.90027481 166.1966214 56.90027481 166.1966214 58.2265625 166.203125 C59.12941986 166.20882507 60.03227722 166.21452515 60.9624939 166.22039795 C62.87390984 166.22983663 64.78534198 166.23637743 66.69677734 166.24023438 C69.59372148 166.24989569 72.48994234 166.28091137 75.38671875 166.3125 C77.24999582 166.31903521 79.11327793 166.32428364 80.9765625 166.328125 C81.83110016 166.3404718 82.68563782 166.3528186 83.56607056 166.36553955 C92.25128135 166.33402964 100.40269277 164.4347774 107.24609375 158.86328125 C115.67394086 149.90986684 116.34579867 137.79541763 116.3125 126.1875 C116.32861328 125.07568359 116.34472656 123.96386719 116.36132812 122.81835938 C116.36749232 112.28374276 114.73891467 102.40449869 108 94 C101.55842426 87.55842426 93.989585 85.24014285 85.00064087 84.87974548 C83.42178604 84.8830764 83.42178604 84.8830764 81.81103516 84.88647461 C80.00984726 84.88658791 80.00984726 84.88658791 78.17227173 84.88670349 C76.89081268 84.89186478 75.60935364 84.89702606 74.2890625 84.90234375 C72.95242364 84.90421105 71.61578408 84.90563348 70.27914429 84.90663147 C66.77750731 84.91043205 63.27591244 84.92024109 59.77429199 84.93133545 C56.19458587 84.94160268 52.61487288 84.94614043 49.03515625 84.95117188 C42.02342031 84.96186578 35.01171218 84.97891236 28 85 Z " fill="#0C3251" transform="translate(2511,110)"/>
<path d="M0 0 C10.23 0 20.46 0 31 0 C31 24.09 31 48.18 31 73 C39.8790625 72.5978125 39.8790625 72.5978125 48.9375 72.1875 C51.71208618 72.07184692 51.71208618 72.07184692 54.54272461 71.95385742 C56.0376476 71.88040402 57.5325244 71.80600194 59.02734375 71.73046875 C59.78019653 71.70263306 60.53304932 71.67479736 61.30871582 71.64611816 C69.04659441 71.2309879 76.34406792 69.60800586 82 64 C90.28993404 53.04889389 95.77661246 39.75274694 101.8125 27.5 C103.36656383 24.35667871 104.92240437 21.21425405 106.48039246 18.07287598 C107.44239769 16.13202573 108.40192525 14.18994479 109.3585968 12.24645996 C110.20265986 10.5393736 111.05670077 8.83716331 111.92329407 7.1414032 C112.78794946 5.42173605 113.57932025 3.66531426 114.34570312 1.8996582 C116 0 116 0 119.36987305 -0.56762695 C120.75074137 -0.56683736 122.13177087 -0.53869745 123.51171875 -0.48828125 C124.23994339 -0.48120651 124.96816803 -0.47413177 125.71846008 -0.46684265 C128.04252237 -0.43887081 130.3641673 -0.3761365 132.6875 -0.3125 C134.26363705 -0.28742031 135.83981191 -0.26460655 137.41601562 -0.24414062 C141.27827398 -0.18903626 145.13872732 -0.10275228 149 0 C148.36832162 4.84563034 146.34606013 8.72438359 144.16796875 13.02734375 C143.58597214 14.19358025 143.58597214 14.19358025 142.99221802 15.38337708 C141.73086309 17.90494216 140.46000396 20.42154482 139.1875 22.9375 C138.54148331 24.22013733 138.54148331 24.22013733 137.88241577 25.52868652 C112.82732214 75.2639846 112.82732214 75.2639846 96 85 C96.76183594 85.32871094 97.52367187 85.65742188 98.30859375 85.99609375 C108.74757093 90.80506077 115.24353017 96.64467891 121.10546875 106.52734375 C121.48887421 107.17065643 121.87227966 107.81396912 122.26730347 108.47677612 C127.4520109 117.31297569 132.00945885 126.48350763 136.625 135.625 C137.98526511 138.30866142 139.34711887 140.9915065 140.71014404 143.67376709 C141.58675408 145.39892501 142.46214754 147.12470173 143.33624268 148.85113525 C146.37487337 154.83451834 149.54191251 160.7318069 152.83349609 166.57958984 C154 169 154 169 154 172 C142.78 172 131.56 172 120 172 C113.90637497 160.95978524 107.89105982 149.9337272 102.3125 138.625 C92.99452854 117.01615433 92.99452854 117.01615433 75.08984375 103.54296875 C69.60971104 102.11915857 64.17585215 101.8079839 58.5390625 101.68359375 C57.48658325 101.65561707 57.48658325 101.65561707 56.4128418 101.6270752 C53.81701027 101.55929562 51.2209922 101.49881814 48.625 101.4375 C42.80875 101.293125 36.9925 101.14875 31 101 C31 124.43 31 147.86 31 172 C20.77 172 10.54 172 0 172 C0 115.24 0 58.48 0 0 Z " fill="#0C3251" transform="translate(1123,131)"/>
<path d="M0 0 C12.34528094 10.09310131 16.42196744 29.30740367 21.81814575 43.71957397 C24.0402617 49.65402213 26.27311042 55.58443556 28.50390625 61.515625 C28.95130661 62.70613968 29.39870697 63.89665436 29.85966492 65.12324524 C33.80889289 75.62875983 37.79499609 86.11991858 41.796875 96.60546875 C42.42762479 98.25933845 43.05832128 99.91322847 43.68896484 101.56713867 C44.98793191 104.97354125 46.28711189 108.37986251 47.58642578 111.78613281 C51.37040824 121.70705409 55.15234894 131.62874814 58.9291687 141.55239868 C59.79583354 143.82865783 60.6631178 146.10468124 61.53103638 148.38046265 C62.73575679 151.53952217 63.93843375 154.6993523 65.140625 157.859375 C65.50538437 158.81443939 65.87014374 159.76950378 66.24595642 160.75350952 C66.57535721 161.62061554 66.904758 162.48772156 67.24414062 163.38110352 C67.67805115 164.52011864 67.67805115 164.52011864 68.12072754 165.68214417 C68.734375 167.41796875 68.734375 167.41796875 68.734375 168.41796875 C57.184375 168.41796875 45.634375 168.41796875 33.734375 168.41796875 C26.18922592 148.68888559 18.67919023 128.94685246 11.234375 109.1796875 C10.9524165 108.43108271 10.67045799 107.68247791 10.37995529 106.91118813 C7.54020209 99.37099988 4.70213218 91.83018045 1.86668205 84.28837299 C-3.36611651 70.37118757 -8.60931788 56.45821127 -13.9296875 42.57421875 C-14.34133148 41.49644165 -14.75297546 40.41866455 -15.17709351 39.30822754 C-15.5564505 38.32157104 -15.9358075 37.33491455 -16.32666016 36.31835938 C-16.65477692 35.46326782 -16.98289368 34.60817627 -17.32095337 33.72717285 C-18.88278191 29.29161449 -18.88278191 29.29161449 -22.265625 26.41796875 C-25.68134353 25.91765669 -25.68134353 25.91765669 -29.265625 26.41796875 C-33.60082218 30.59414042 -35.35435141 36.0325991 -37.4765625 41.53125 C-38.07769867 43.05724823 -38.07769867 43.05724823 -38.690979 44.61407471 C-40.01581251 47.98302033 -41.32818332 51.35667849 -42.640625 54.73046875 C-43.56868419 57.09724337 -44.49757194 59.46369325 -45.42724609 61.82983398 C-47.38132618 66.80725848 -49.33047253 71.78656982 -51.27539062 76.76757812 C-54.22369635 84.31722375 -57.18829516 91.86040448 -60.15625 99.40234375 C-64.23324338 109.76472676 -68.30513937 120.12908953 -72.37203979 130.49543762 C-77.33217983 143.13800618 -82.29916268 155.77788229 -87.265625 168.41796875 C-98.815625 168.41796875 -110.365625 168.41796875 -122.265625 168.41796875 C-115.35361499 149.98594206 -115.35361499 149.98594206 -112.48046875 142.65625 C-111.97990211 141.37564445 -111.97990211 141.37564445 -111.46922302 140.06916809 C-110.38189082 137.28906425 -109.29266894 134.50970648 -108.203125 131.73046875 C-107.82045471 130.7534198 -107.43778442 129.77637085 -107.04351807 128.76971436 C-98.44045302 106.80702052 -89.76452858 84.87324954 -81.04986572 62.95462036 C-78.59426921 56.77517213 -76.15085825 50.59113221 -73.72076416 44.40161133 C-72.26754002 40.70317981 -70.80755735 37.00743986 -69.34625244 33.31219482 C-68.67902533 31.62026752 -68.01480996 29.9271487 -67.35394287 28.23272705 C-57.17642176 2.14981532 -57.17642176 2.14981532 -45.1875 -3.57421875 C-31.38152926 -9.10714595 -12.41986271 -8.75035782 0 0 Z " fill="#0C3251" transform="translate(1030.265625,134.58203125)"/>
<path d="M0 0 C0.78145386 -0.00014603 1.56290771 -0.00029205 2.36804199 -0.0004425 C4.92182299 0.00024784 7.4755288 0.00799864 10.02929688 0.01586914 C11.81148234 0.01773645 13.59366833 0.01915887 15.37585449 0.02015686 C20.04469239 0.02395743 24.71349871 0.03376648 29.38232422 0.04486084 C34.15526909 0.05512808 38.92821912 0.05966582 43.70117188 0.06469727 C53.05014625 0.07539116 62.39908898 0.0929678 71.74804688 0.11352539 C71.74804688 10.34352539 71.74804688 20.57352539 71.74804688 31.11352539 C69.47309326 31.12810791 67.19813965 31.14269043 64.85424805 31.15771484 C57.30247201 31.20825574 49.75089797 31.27488416 42.19932079 31.3492403 C37.62484212 31.39379606 33.05044949 31.433084 28.47583008 31.45996094 C24.05360977 31.48614253 19.63172319 31.52664767 15.20971107 31.57671165 C13.53023776 31.5932806 11.85070685 31.60485652 10.17116356 31.6111393 C-8.66176001 31.63122807 -8.66176001 31.63122807 -24.71679688 40.52758789 C-33.29814286 50.22823987 -31.59575458 62.64575312 -32.25195312 75.11352539 C1.73804688 75.11352539 35.72804688 75.11352539 70.74804688 75.11352539 C70.74804688 85.01352539 70.74804688 94.91352539 70.74804688 105.11352539 C36.75804687 105.11352539 2.76804687 105.11352539 -32.25195312 105.11352539 C-32.25195312 127.22352539 -32.25195312 149.33352539 -32.25195312 172.11352539 C-42.48195313 172.11352539 -52.71195313 172.11352539 -63.25195312 172.11352539 C-63.29729233 157.39572234 -63.33405342 142.67796339 -63.35557747 127.9601059 C-63.36584197 121.1246641 -63.37980863 114.28926914 -63.40283203 107.45385742 C-63.42507567 100.8467368 -63.43655092 94.23965172 -63.44170761 87.63249207 C-63.44537851 85.12256611 -63.45254621 82.61264254 -63.46341324 80.10273743 C-63.65697702 33.50671013 -63.65697702 33.50671013 -48.51367188 16.11743164 C-35.71916144 3.8160715 -17.18257127 -0.08588399 0 0 Z " fill="#EC2224" transform="translate(1747.251953125,130.886474609375)"/>
<path d="M0 0 C12.40543296 -0.06802372 24.81074018 -0.12295857 37.21631813 -0.15543652 C42.97794195 -0.17103144 48.73943054 -0.19215595 54.50097656 -0.22631836 C60.0706857 -0.25913318 65.64026551 -0.27689933 71.21006393 -0.28463173 C73.32532153 -0.29013577 75.44057279 -0.30088276 77.55577469 -0.31719017 C97.02699801 -0.46121107 115.93911628 0.8308232 130.9453125 14.8125 C141.4707381 26.11252402 144.88984819 40.69880596 144.3515625 55.8671875 C143.32989353 71.3245245 137.50789525 84.49882862 126 95 C115.57508528 102.39877436 105.01010689 106.03434723 92.26025391 106.20532227 C91.61564209 106.21522186 90.97103027 106.22512146 90.30688477 106.23532104 C88.19681346 106.2666634 86.08671971 106.29158435 83.9765625 106.31640625 C82.50539599 106.3369994 81.03423508 106.35799646 79.56307983 106.37937927 C75.70640626 106.43435632 71.84968146 106.48387218 67.99291992 106.53222656 C64.05122361 106.58262045 60.10960093 106.63821279 56.16796875 106.69335938 C48.445375 106.80064253 40.72271968 106.90215269 33 107 C31.92429907 110.2271028 31.8428884 112.6365741 31.79467773 116.03198242 C31.77473251 117.27304245 31.75478729 118.51410248 31.73423767 119.79277039 C31.71725473 121.1470019 31.70037587 122.50123473 31.68359375 123.85546875 C31.66301772 125.24124259 31.64202108 126.62701025 31.62062073 128.01277161 C31.56546699 131.65740953 31.51602826 135.30210346 31.46777344 138.94683838 C31.41750944 142.66708341 31.3619011 146.38724826 31.30664062 150.10742188 C31.1986357 157.40488643 31.09956093 164.70239575 31 172 C21.1 172 11.2 172 1 172 C0.90936341 162.00278441 0.83609121 152.00584504 0.79275131 142.00831032 C0.77194254 137.36524727 0.74374868 132.72248172 0.69824219 128.07958984 C0.65454353 123.59268678 0.63081251 119.10606853 0.62049103 114.61896896 C0.61314252 112.91346127 0.59879325 111.20796785 0.57707977 109.50258255 C0.33295489 89.5207426 0.33295489 89.5207426 6.37689209 82.37124634 C13.44565921 75.90107089 23.32580768 75.88364836 32.390625 75.8581543 C33.08119995 75.85467987 33.7717749 75.85120544 34.48327637 75.84762573 C35.96731786 75.84033342 37.4513698 75.83495374 38.9354248 75.83133507 C41.2906958 75.82409363 43.64576745 75.80837367 46.00097656 75.78999329 C52.69203051 75.73786482 59.38296579 75.68954635 66.07421875 75.67407227 C70.18151562 75.66395615 74.28829425 75.63455288 78.39538574 75.59275246 C79.95174226 75.58050202 81.50817208 75.57531024 83.0645752 75.57755089 C94.64068613 75.66168774 94.64068613 75.66168774 105 71 C109.74687845 65.90471617 111.66847305 60.5804911 112.3125 53.625 C111.73640712 46.94232264 109.9118249 40.77148705 105 36 C100.34563451 33.28495346 96.27404457 31.89142634 90.91241455 31.84178162 C90.10757126 31.8319928 89.30272797 31.82220398 88.47349548 31.81211853 C87.59955643 31.80636307 86.72561737 31.8006076 85.82519531 31.79467773 C84.898022 31.78477814 83.97084869 31.77487854 83.01557922 31.76467896 C79.9531204 31.7331095 76.89064606 31.70832446 73.828125 31.68359375 C71.70391437 31.6630203 69.5797078 31.64202372 67.45550537 31.62062073 C61.86602059 31.56544051 56.2764991 31.51601333 50.68695068 31.46777344 C44.9826735 31.41752888 39.27844958 31.36185823 33.57421875 31.30664062 C22.38285632 31.19910855 11.19144862 31.09815399 0 31 C0 20.77 0 10.54 0 0 Z " fill="#0C3251" transform="translate(576,131)"/>
<path d="M0 0 C43.23 0 86.46 0 131 0 C131 10.23 131 20.46 131 31 C114.83 31 98.66 31 82 31 C82 77.53 82 124.06 82 172 C71.44 172 60.88 172 50 172 C50 125.47 50 78.94 50 31 C33.5 31 17 31 0 31 C0 20.77 0 10.54 0 0 Z " fill="#EC2224" transform="translate(1840,131)"/>
<path d="M0 0 C4.95 -0.0825 9.9 -0.165 15 -0.25 C17.31837891 -0.30462402 17.31837891 -0.30462402 19.68359375 -0.36035156 C28.06636314 -0.42795454 34.40168491 -0.15331685 40.9375 5.75 C42.82172532 9.7401242 43.61466353 13.73149358 42.45703125 18.00390625 C41.31119152 20.78998357 40.13583787 22.86416213 38 25 C38.78375 25.598125 39.5675 26.19625 40.375 26.8125 C44.35306553 30.12755461 45.45916994 32.75938905 45.95703125 37.87890625 C46.05996562 42.9601209 44.83402327 46.0846086 41.4375 49.8125 C33.6850902 55.46957051 23.01144385 54.24037054 13.9375 54.125 C9.338125 54.08375 4.73875 54.0425 0 54 C0 36.18 0 18.36 0 0 Z M12 11 C12 14.3 12 17.6 12 21 C14.24940295 21.08119503 16.49964871 21.13927819 18.75 21.1875 C20.00296875 21.22230469 21.2559375 21.25710938 22.546875 21.29296875 C26.14109357 20.98802939 27.44725126 20.45605371 30 18 C29.72965366 15.56282742 29.72965366 15.56282742 29 13 C25.2632157 10.50881047 23.25548181 10.7934774 18.8125 10.875 C17.54019531 10.89304687 16.26789063 10.91109375 14.95703125 10.9296875 C13.98121094 10.95289063 13.00539063 10.97609375 12 11 Z M12 32 C12 35.3 12 38.6 12 42 C14.93804996 42.08086376 17.87388075 42.1404283 20.8125 42.1875 C21.64587891 42.21263672 22.47925781 42.23777344 23.33789062 42.26367188 C24.14033203 42.27333984 24.94277344 42.28300781 25.76953125 42.29296875 C26.50792236 42.3086792 27.24631348 42.32438965 28.00708008 42.34057617 C30.56974287 41.9026349 31.45887221 41.06086386 33 39 C32.99843776 36.40882687 32.99843776 36.40882687 32 34 C28.95318939 31.96879293 28.39881676 31.75340125 24.98828125 31.8046875 C24.23095703 31.81113281 23.47363281 31.81757813 22.69335938 31.82421875 C21.90767578 31.84097656 21.12199219 31.85773438 20.3125 31.875 C19.51521484 31.88402344 18.71792969 31.89304687 17.89648438 31.90234375 C15.930861 31.92588415 13.96539225 31.96175453 12 32 Z " fill="#0C3251" transform="translate(1785,360)"/>
<path d="M0 0 C12 0 12 0 14.82421875 1.984375 C15.74654297 3.35335938 15.74654297 3.35335938 16.6875 4.75 C17.39648438 5.74773437 18.10546875 6.74546875 18.8359375 7.7734375 C19.55007812 8.83820313 20.26421875 9.90296875 21 11 C22.57989146 13.14404599 24.19846801 15.25625443 25.8125 17.375 C26.52019531 18.33148438 27.22789062 19.28796875 27.95703125 20.2734375 C29.91763917 22.89008057 31.95744738 25.44680922 34 28 C34.33 18.76 34.66 9.52 35 0 C39.29 0 43.58 0 48 0 C48 17.82 48 35.64 48 54 C37 54 37 54 33.21484375 50.51953125 C32.08651808 48.97612031 30.99514858 47.40517562 29.9375 45.8125 C29.35532715 45.00055176 28.7731543 44.18860352 28.17333984 43.35205078 C26.9923852 41.70493837 25.82455476 40.04833244 24.67041016 38.38232422 C22.268332 34.95650156 19.70058896 31.67079592 17.125 28.375 C15.76375 26.60125 14.4025 24.8275 13 23 C12.67 33.23 12.34 43.46 12 54 C8.04 54 4.08 54 0 54 C0 36.18 0 18.36 0 0 Z " fill="#0C3251" transform="translate(2386,360)"/>
<path d="M0 0 C12 0 12 0 14.90234375 1.9921875 C15.90974609 3.41917969 15.90974609 3.41917969 16.9375 4.875 C17.3195459 5.39223633 17.7015918 5.90947266 18.09521484 6.44238281 C18.94630062 7.60561178 19.7790707 8.78239241 20.59619141 9.96972656 C22.72398035 13.04706445 24.95522525 16.04746323 27.1706543 19.06201172 C29.80739491 22.68855939 32.39909541 26.3476659 35 30 C35.33 20.1 35.66 10.2 36 0 C39.96 0 43.92 0 48 0 C48 17.82 48 35.64 48 54 C37 54 37 54 33.1796875 50.484375 C32.04191796 48.93215113 30.94077338 47.35251226 29.875 45.75 C29.33230469 44.99203125 28.78960938 44.2340625 28.23046875 43.453125 C26.46518104 40.98419114 24.7333535 38.49145755 23 36 C20.03 32.04 17.06 28.08 14 24 C13.67 33.9 13.34 43.8 13 54 C8.71 54 4.42 54 0 54 C0 36.18 0 18.36 0 0 Z " fill="#0C3251" transform="translate(1549,360)"/>
<path d="M0 0 C7.6725 -0.12375 7.6725 -0.12375 15.5 -0.25 C17.09779297 -0.28641602 18.69558594 -0.32283203 20.34179688 -0.36035156 C27.83674846 -0.41887637 33.63240144 -0.38320301 40 4 C45.32875429 9.73865847 45.34011724 13.89542201 45.28515625 21.56640625 C44.82410405 27.11798001 43.01164726 29.22501712 38.875 32.875 C37 34 37 34 35 34 C35.53109375 34.79664063 36.0621875 35.59328125 36.609375 36.4140625 C38.73958333 39.609375 40.86979167 42.8046875 43 46 C43.74765625 47.08023438 44.4953125 48.16046875 45.265625 49.2734375 C47 52 47 52 47 54 C41.98471596 54.90275113 36.88926568 55.76308025 32 54 C27.38320315 50.07072615 24.57460663 44.39152918 22 39 C22 38.34 22 37.68 22 37 C19.03 37 16.06 37 13 37 C13 42.61 13 48.22 13 54 C8.71 54 4.42 54 0 54 C0 36.18 0 18.36 0 0 Z M13 11 C13 15.62 13 20.24 13 25 C15.5850867 25.13526616 18.16308752 25.23417653 20.75 25.3125 C21.47960938 25.35439453 22.20921875 25.39628906 22.9609375 25.43945312 C26.90043722 25.52898721 28.59337603 25.38014613 31.51953125 22.64453125 C33.22579633 20.12312038 33.22579633 20.12312038 32.9375 17.375 C31.94135968 14.85144452 31.13790618 13.64454321 29 12 C23.83608171 10.2786939 18.40708764 10.94646448 13 11 Z " fill="#0C3251" transform="translate(1683,360)"/>
<path d="M0 0 C6.35159373 5.10889061 10.31481251 11.17961924 11.2109375 19.390625 C11.32528174 28.67537735 10.09647384 36.15253336 3.6875 43.1875 C-3.18040102 49.37006907 -10.99780916 51.41816936 -20.125 51.3125 C-28.31586851 50.57148443 -34.82482264 47.02078557 -40.4375 41.0625 C-45.36890633 34.82769744 -46.7112565 27.92563745 -46.48046875 20.08984375 C-45.64083291 13.52961208 -42.96120773 6.89417048 -38.125 2.3125 C-25.63044755 -6.21221137 -13.5246948 -7.30333519 0 0 Z M-31.10546875 14.44921875 C-33.5179806 18.85829212 -33.8248246 23.78967551 -32.4921875 28.59375 C-30.39466218 33.31758854 -27.88047062 36.06935348 -23.125 38.3125 C-18.68049612 39.46152793 -15.26529186 39.68528772 -10.875 38.25 C-6.73302105 35.33178756 -3.76022345 32.21817035 -2.125 27.3125 C-1.59465716 21.0544545 -2.29629995 16.43253675 -6.125 11.3125 C-9.5958263 8.11142704 -13.08042668 7.06924182 -17.75 6.875 C-23.70046412 7.1876515 -27.41993711 9.73407827 -31.10546875 14.44921875 Z " fill="#0C3251" transform="translate(957.125,363.6875)"/>
<path d="M0 0 C7.4559375 -0.0928125 7.4559375 -0.0928125 15.0625 -0.1875 C16.61718994 -0.21481201 18.17187988 -0.24212402 19.77368164 -0.27026367 C21.01496826 -0.27775635 22.25625488 -0.28524902 23.53515625 -0.29296875 C24.797229 -0.3086792 26.05930176 -0.32438965 27.35961914 -0.34057617 C32.77000935 0.16559339 36.56683313 1.82161835 40.8125 5.3125 C44.45663166 9.78957603 45.48923736 14.14086615 45.3125 19.91796875 C44.25312873 26.97602981 40.35823794 30.75010991 35 35 C35.71027344 36.03640625 36.42054687 37.0728125 37.15234375 38.140625 C38.08103466 39.51020957 39.00940326 40.88001273 39.9375 42.25 C40.40607422 42.93191406 40.87464844 43.61382812 41.35742188 44.31640625 C41.80537109 44.98027344 42.25332031 45.64414062 42.71484375 46.328125 C43.12855225 46.9355957 43.54226074 47.54306641 43.96850586 48.16894531 C45.05717058 50.10148624 45.56305737 51.83410258 46 54 C41.17349539 54.67110106 36.80162921 54.93866436 32 54 C27.61310018 50.17215038 25.17256942 45.33218228 22.5859375 40.1875 C21.19798925 37.81461172 21.19798925 37.81461172 18.73828125 37.29296875 C16.4921875 37.1953125 14.24609375 37.09765625 12 37 C12 42.61 12 48.22 12 54 C8.04 54 4.08 54 0 54 C0 36.18 0 18.36 0 0 Z M12 11 C12 15.62 12 20.24 12 25 C14.58445773 25.1081866 17.16437352 25.18737237 19.75 25.25 C20.84441406 25.30027344 20.84441406 25.30027344 21.9609375 25.3515625 C25.51386184 25.41616112 27.57946768 25.30066096 30.5078125 23.20703125 C32.31719521 20.95157014 32.31719521 20.95157014 32.125 17.4375 C31.3028717 13.92302608 31.3028717 13.92302608 28.75 12.0625 C23.10364665 10.46269988 17.85867541 10.82065279 12 11 Z " fill="#0C3251" transform="translate(1422,360)"/>
<path d="M0 0 C7.4559375 -0.0928125 7.4559375 -0.0928125 15.0625 -0.1875 C16.61718994 -0.21481201 18.17187988 -0.24212402 19.77368164 -0.27026367 C21.01496826 -0.27775635 22.25625488 -0.28524902 23.53515625 -0.29296875 C24.797229 -0.3086792 26.05930176 -0.32438965 27.35961914 -0.34057617 C32.23516767 0.11555623 36.17628036 1.43421681 39.9609375 4.68359375 C40.42757813 5.26238281 40.89421875 5.84117187 41.375 6.4375 C41.85710937 7.01371094 42.33921875 7.58992188 42.8359375 8.18359375 C45.67930296 12.62038885 45.639672 17.96595941 44.57421875 23.01953125 C43.29893978 27.11137726 41.71396308 29.52792604 38.37890625 32.24609375 C37.74670166 32.76743896 37.11449707 33.28878418 36.46313477 33.82592773 C35.98030029 34.21337158 35.49746582 34.60081543 35 35 C35.33322266 35.50450684 35.66644531 36.00901367 36.00976562 36.52880859 C37.51124121 38.80779654 39.00568792 41.0913093 40.5 43.375 C41.02464844 44.1690625 41.54929687 44.963125 42.08984375 45.78125 C42.58613281 46.54179687 43.08242187 47.30234375 43.59375 48.0859375 C44.05458984 48.7876709 44.51542969 49.4894043 44.99023438 50.21240234 C46 52 46 52 46 54 C41.17349539 54.67110106 36.80162921 54.93866436 32 54 C27.61310018 50.17215038 25.17256942 45.33218228 22.5859375 40.1875 C21.19798925 37.81461172 21.19798925 37.81461172 18.73828125 37.29296875 C16.4921875 37.1953125 14.24609375 37.09765625 12 37 C12 42.61 12 48.22 12 54 C8.04 54 4.08 54 0 54 C0 36.18 0 18.36 0 0 Z M12 11 C12 15.62 12 20.24 12 25 C14.58445773 25.1081866 17.16437352 25.18737237 19.75 25.25 C20.84441406 25.30027344 20.84441406 25.30027344 21.9609375 25.3515625 C25.51386184 25.41616112 27.57946768 25.30066096 30.5078125 23.20703125 C32.31719521 20.95157014 32.31719521 20.95157014 32.125 17.4375 C31.3028717 13.92302608 31.3028717 13.92302608 28.75 12.0625 C23.10364665 10.46269988 17.85867541 10.82065279 12 11 Z " fill="#0C3251" transform="translate(1059,360)"/>
<path d="M0 0 C13.53 0 27.06 0 41 0 C41 3.63 41 7.26 41 11 C31.76 11 22.52 11 13 11 C13 14.3 13 17.6 13 21 C21.25 21 29.5 21 38 21 C38 24.63 38 28.26 38 32 C29.75 32 21.5 32 13 32 C13 35.3 13 38.6 13 42 C22.57 42 32.14 42 42 42 C42 45.96 42 49.92 42 54 C28.14 54 14.28 54 0 54 C0 36.18 0 18.36 0 0 Z " fill="#0C3251" transform="translate(2525,360)"/>
<path d="M0 0 C13.53 0 27.06 0 41 0 C41 3.63 41 7.26 41 11 C31.76 11 22.52 11 13 11 C13 14.3 13 17.6 13 21 C21.25 21 29.5 21 38 21 C38 24.63 38 28.26 38 32 C29.75 32 21.5 32 13 32 C13 35.3 13 38.6 13 42 C22.57 42 32.14 42 42 42 C42 45.96 42 49.92 42 54 C28.14 54 14.28 54 0 54 C0 36.18 0 18.36 0 0 Z " fill="#0C3251" transform="translate(2323,360)"/>
<path d="M0 0 C13.53 0 27.06 0 41 0 C41 3.63 41 7.26 41 11 C31.76 11 22.52 11 13 11 C13 14.3 13 17.6 13 21 C21.25 21 29.5 21 38 21 C38 24.63 38 28.26 38 32 C29.75 32 21.5 32 13 32 C13 35.3 13 38.6 13 42 C22.57 42 32.14 42 42 42 C42 45.96 42 49.92 42 54 C28.14 54 14.28 54 0 54 C0 36.18 0 18.36 0 0 Z " fill="#0C3251" transform="translate(2143,360)"/>
<path d="M0 0 C13.53 0 27.06 0 41 0 C41 3.63 41 7.26 41 11 C31.43 11 21.86 11 12 11 C12 14.3 12 17.6 12 21 C20.25 21 28.5 21 37 21 C37 24.63 37 28.26 37 32 C28.75 32 20.5 32 12 32 C12 35.3 12 38.6 12 42 C21.57 42 31.14 42 41 42 C41 45.96 41 49.92 41 54 C27.47 54 13.94 54 0 54 C0 36.18 0 18.36 0 0 Z " fill="#0C3251" transform="translate(1621,360)"/>
<path d="M0 0 C13.2 0 26.4 0 40 0 C40 3.63 40 7.26 40 11 C30.76 11 21.52 11 12 11 C12 14.3 12 17.6 12 21 C20.25 21 28.5 21 37 21 C37 24.63 37 28.26 37 32 C28.75 32 20.5 32 12 32 C12 35.3 12 38.6 12 42 C21.57 42 31.14 42 41 42 C41 45.96 41 49.92 41 54 C27.47 54 13.94 54 0 54 C0 36.18 0 18.36 0 0 Z " fill="#0C3251" transform="translate(1950,360)"/>
<path d="M0 0 C3.96 0 7.92 0 12 0 C12.84253279 1.94136942 13.6849562 3.88278631 14.52734375 5.82421875 C14.79187347 6.43385971 15.0564032 7.04350067 15.32894897 7.6716156 C16.79354366 11.04774388 18.25672919 14.42447409 19.7175293 17.80224609 C20.31428001 19.18197063 20.91104109 20.56169067 21.5078125 21.94140625 C21.80498672 22.62853699 22.10216095 23.31566772 22.40834045 24.02362061 C24.21494196 28.197321 26.03575408 32.36446029 27.8671875 36.52734375 C28.68230189 38.3932247 29.49740681 40.25910979 30.3125 42.125 C30.69075928 42.97537842 31.06901855 43.82575684 31.45874023 44.7019043 C31.79848877 45.483479 32.1382373 46.26505371 32.48828125 47.0703125 C32.78259033 47.73820801 33.07689941 48.40610352 33.38012695 49.09423828 C34 51 34 51 34 55 C29.71 55 25.42 55 21 55 C17 45.25 17 45.25 17 43 C9.74 43.33 2.48 43.66 -5 44 C-6.98 48.95 -6.98 48.95 -9 54 C-10 55 -10 55 -12.94140625 55.09765625 C-17.97070312 55.04882812 -17.97070312 55.04882812 -23 55 C-18.65181571 43.21599117 -13.65874639 31.71817878 -8.6875 20.1875 C-7.84287252 18.22340465 -6.99846975 16.25921266 -6.15429688 14.29492188 C-4.10545182 9.52883044 -2.05357626 4.76405468 0 0 Z M5 17 C4.16260219 19.1234016 3.33019717 21.2487728 2.5 23.375 C2.0359375 24.55835938 1.571875 25.74171875 1.09375 26.9609375 C-0.11287794 29.7753244 -0.11287794 29.7753244 0 32 C3.96 32 7.92 32 12 32 C10.32819664 26.74576086 8.62305301 21.87138415 6 17 C5.67 17 5.34 17 5 17 Z " fill="#0C3251" transform="translate(1368,359)"/>
<path d="M0 0 C3.96 0 7.92 0 12 0 C12.01458252 0.96301025 12.02916504 1.92602051 12.04418945 2.91821289 C12.10249923 6.51737168 12.17972739 10.11592605 12.26245117 13.71459961 C12.29554777 15.26723362 12.32362651 16.81998353 12.34643555 18.37280273 C12.38026524 20.6149194 12.43258987 22.85598847 12.48828125 25.09765625 C12.49467117 25.78336197 12.5010611 26.46906769 12.50764465 27.17555237 C12.65762484 32.17754977 13.73351739 35.62185764 16 40 C19.06073445 42.09878934 21.53859911 42.10862484 25.125 41.8125 C29.37840866 41.01666385 29.37840866 41.01666385 32 38 C33.22318866 34.33043403 33.23116124 30.87678997 33.31640625 27.05078125 C33.33718735 26.27816452 33.35796844 25.50554779 33.37937927 24.70951843 C33.44471038 22.2439352 33.50368315 19.77824639 33.5625 17.3125 C33.60570087 15.63996309 33.64931566 13.96743681 33.69335938 12.29492188 C33.8003749 8.1967225 33.90168857 4.09841704 34 0 C38.29 0 42.58 0 47 0 C47.07484195 4.80139866 47.12892454 9.60244862 47.16479492 14.40429688 C47.17976766 16.03358891 47.20015321 17.66284145 47.22631836 19.29199219 C47.5596224 40.59730914 47.5596224 40.59730914 41.625 47.9375 C33.19746003 54.55913855 25.39647844 54.93471523 15 54 C8.96729816 52.48750312 5.47606582 49.00962427 2 44 C-0.43362879 39.37928651 -0.25882634 35.07059208 -0.1953125 29.98046875 C-0.1924826 29.12189774 -0.18965271 28.26332672 -0.18673706 27.3787384 C-0.1755807 24.64818125 -0.15048459 21.9179573 -0.125 19.1875 C-0.11496432 17.33138496 -0.1058395 15.47526476 -0.09765625 13.61914062 C-0.07565626 9.07929954 -0.04115781 4.53970619 0 0 Z " fill="#0C3251" transform="translate(989,360)"/>
<path d="M0 0 C5.00845279 -0.9015215 10.12100447 -1.78141493 15 0 C19.576232 3.98191615 22.29949643 9.66253411 25 15 C26.1063219 13.43902526 27.20995785 11.87614673 28.3125 10.3125 C28.92738281 9.44238281 29.54226563 8.57226562 30.17578125 7.67578125 C32.06974074 5.06938688 32.06974074 5.06938688 33.25 2.1875 C35 0 35 0 38.57421875 -0.48828125 C39.94616376 -0.45514248 41.3176753 -0.39563595 42.6875 -0.3125 C43.38939453 -0.28994141 44.09128906 -0.26738281 44.81445312 -0.24414062 C46.5438833 -0.18531647 48.27221438 -0.09563389 50 0 C48.62327149 2.89348394 47.05779971 5.50837592 45.25 8.15234375 C44.7240625 8.92900391 44.198125 9.70566406 43.65625 10.50585938 C42.5539001 12.12428582 41.44973803 13.74147945 40.34375 15.35742188 C39.8178125 16.13537109 39.291875 16.91332031 38.75 17.71484375 C38.27046875 18.41730225 37.7909375 19.11976074 37.296875 19.84350586 C35.87395717 22.20958892 34.78015718 24.34614106 34 27 C35.36345004 29.66894583 36.68307522 31.80042637 38.4375 34.1875 C38.89817871 34.84516357 39.35885742 35.50282715 39.83349609 36.18041992 C41.2054596 38.13297626 42.59977969 40.06764514 44 42 C45.37794938 43.93540351 46.75346027 45.87254896 48.125 47.8125 C48.68445312 48.58207031 49.24390625 49.35164063 49.8203125 50.14453125 C51 52 51 52 51 54 C45.98471596 54.90275113 40.88926568 55.76308025 36 54 C31.38320315 50.07072615 28.57460663 44.39152918 26 39 C26 38.34 26 37.68 26 37 C22.67570849 40.08524134 20.27843457 43.389128 17.8125 47.1875 C14.06944444 52.93055556 14.06944444 52.93055556 13 54 C10.64686445 54.07271741 8.29166332 54.08370868 5.9375 54.0625 C4.64714844 54.05347656 3.35679688 54.04445313 2.02734375 54.03515625 C1.02832031 54.02355469 0.02929688 54.01195312 -1 54 C0.6480837 48.84078146 3.79242646 44.8305531 6.9375 40.5 C8.51795487 38.30818354 10.09387575 36.11410663 11.65185547 33.90625 C12.75124994 32.35172772 13.87423124 30.8139085 15.00390625 29.28125 C16.28779917 27.02086429 16.28779917 27.02086429 15.26586914 24.65698242 C13.9704833 21.93804624 12.50248081 19.64854575 10.7421875 17.20703125 C10.11699219 16.32982422 9.49179688 15.45261719 8.84765625 14.54882812 C8.19667969 13.64583984 7.54570313 12.74285156 6.875 11.8125 C5.57647928 10.0095637 4.28198455 8.20371862 2.9921875 6.39453125 C2.41839355 5.59893799 1.84459961 4.80334473 1.25341797 3.98364258 C0 2 0 2 0 0 Z " fill="#0C3251" transform="translate(2009,360)"/>
<path d="M0 0 C4.62 -0.0825 9.24 -0.165 14 -0.25 C16.16175781 -0.30462402 16.16175781 -0.30462402 18.3671875 -0.36035156 C25.73818003 -0.42396536 30.79987994 -0.11832792 37 4 C41.23371213 8.23371213 42.76527145 12.46493168 43.3125 18.375 C42.781865 24.53036604 41.37259657 29.10559058 36.75 33.375 C29.22329143 39.1096351 21.07596383 38.1728755 12 38 C12 43.28 12 48.56 12 54 C8.04 54 4.08 54 0 54 C0 36.18 0 18.36 0 0 Z M12 11 C12 15.95 12 20.9 12 26 C20.63132433 26.77662842 20.63132433 26.77662842 28.375 23.875 C30.25627982 21.09699206 30.25627982 21.09699206 30 17.875 C29.00543826 15.01563499 28.41138526 13.76216615 26 12 C22.85069107 10.95023036 20.61185544 10.89868405 17.3125 10.9375 C15.559375 10.958125 13.80625 10.97875 12 11 Z " fill="#0C3251" transform="translate(1293,360)"/>
<path d="M0 0 C1.88783389 1.57171076 3.389231 3.12942955 5 5 C2.36 7.97 -0.28 10.94 -3 14 C-4.299375 13.175 -5.59875 12.35 -6.9375 11.5 C-11.71656499 8.86249715 -15.60583934 7.90288258 -21 9 C-25.43135421 11.21567711 -27.95552361 13.48063113 -30 18 C-31.75477053 23.5149931 -30.35785808 27.90586217 -28 33 C-25.45800895 36.30458836 -23.0566748 38.00836838 -19 39 C-12.7163159 39.10472807 -9.16903909 37.60630634 -4 34 C-1.9375 33.875 -1.9375 33.875 0 35 C1.82814508 36.91243995 3.38517014 38.89174991 5 41 C2.9210166 45.88561099 -0.30905259 47.7721922 -5 50 C-13.63642213 52.86943015 -21.95645199 52.63689378 -30.25 48.875 C-36.97243054 45.21301665 -41.08429869 40.05906633 -44 33 C-46.49290315 24.38815274 -44.88543561 15.94681241 -41.0390625 8.01953125 C-37.48206785 2.30563559 -31.42156983 -1.49264665 -25.109375 -3.64453125 C-16.39307185 -5.11338974 -7.51816337 -4.98556173 0 0 Z " fill="#0C3251" transform="translate(2118,363)"/>
<path d="M0 0 C1.88783389 1.57171076 3.389231 3.12942955 5 5 C2.36 7.97 -0.28 10.94 -3 14 C-4.299375 13.175 -5.59875 12.35 -6.9375 11.5 C-11.7374643 8.83923239 -15.58399611 8.04982388 -21 9 C-25.59243093 10.83697237 -27.68015223 13.69171129 -30 18 C-31.59950988 23.75823555 -30.73021699 27.84292345 -28 33 C-25.41888099 36.26941741 -23.05734515 38.00820452 -19 39 C-12.79307833 39.10344869 -9.03957703 37.71968781 -4 34 C-1 34 -1 34 0.60546875 35.53125 C1.38857422 36.50578125 1.38857422 36.50578125 2.1875 37.5 C2.71730469 38.1496875 3.24710938 38.799375 3.79296875 39.46875 C4.19128906 39.9740625 4.58960937 40.479375 5 41 C2.9210166 45.88561099 -0.30905259 47.7721922 -5 50 C-13.63642213 52.86943015 -21.95645199 52.63689378 -30.25 48.875 C-36.97243054 45.21301665 -41.08429869 40.05906633 -44 33 C-46.49290315 24.38815274 -44.88543561 15.94681241 -41.0390625 8.01953125 C-37.48206785 2.30563559 -31.42156983 -1.49264665 -25.109375 -3.64453125 C-16.39307185 -5.11338974 -7.51816337 -4.98556173 0 0 Z " fill="#0C3251" transform="translate(2500,363)"/>
<path d="M0 0 C13.24750771 -1.36520118 13.24750771 -1.36520118 17.12109375 1.65234375 C18.66358742 4.03087736 19.8317414 6.41773261 21 9 C22.10670415 10.86514475 23.23146809 12.7197049 24.375 14.5625 C25.25225199 16.04033219 26.12809876 17.51900464 27 19 C27.29245605 18.53102295 27.58491211 18.0620459 27.88623047 17.57885742 C29.2153455 15.44810835 30.54516528 13.31779997 31.875 11.1875 C32.33519531 10.44951172 32.79539062 9.71152344 33.26953125 8.95117188 C33.71425781 8.23896484 34.15898438 7.52675781 34.6171875 6.79296875 C35.22989502 5.81106567 35.22989502 5.81106567 35.85498047 4.80932617 C36.8792831 3.1907533 37.93749584 1.59375623 39 0 C41.62697064 -0.22137393 44.00893964 -0.28162025 46.625 -0.1875 C47.33140625 -0.17396484 48.0378125 -0.16042969 48.765625 -0.14648438 C50.51074128 -0.1111104 52.25546608 -0.05730221 54 0 C51.42569103 4.9932717 48.62479926 9.62866613 45.265625 14.13671875 C35.45740316 27.53563301 31.71815553 37.36847368 33 54 C29.04 54 25.08 54 21 54 C21.11794922 51.96585937 21.11794922 51.96585937 21.23828125 49.890625 C21.61778995 34.80447171 17.6163934 26.00586678 8.59130859 14.125 C6.45855759 11.27696921 4.57308636 8.32943817 2.6875 5.3125 C2.15511719 4.48363281 1.62273437 3.65476562 1.07421875 2.80078125 C0 1 0 1 0 0 Z " fill="#0C3251" transform="translate(1843,360)"/>
<path d="M0 0 C13.24750771 -1.36520118 13.24750771 -1.36520118 17.12109375 1.65234375 C18.66358742 4.03087736 19.8317414 6.41773261 21 9 C22.10670415 10.86514475 23.23146809 12.7197049 24.375 14.5625 C25.25225199 16.04033219 26.12809876 17.51900464 27 19 C27.29245605 18.53102295 27.58491211 18.0620459 27.88623047 17.57885742 C29.2153455 15.44810835 30.54516528 13.31779997 31.875 11.1875 C32.33519531 10.44951172 32.79539062 9.71152344 33.26953125 8.95117188 C33.71425781 8.23896484 34.15898438 7.52675781 34.6171875 6.79296875 C35.22989502 5.81106567 35.22989502 5.81106567 35.85498047 4.80932617 C36.8792831 3.1907533 37.93749584 1.59375623 39 0 C41.62697064 -0.22137393 44.00893964 -0.28162025 46.625 -0.1875 C47.33140625 -0.17396484 48.0378125 -0.16042969 48.765625 -0.14648438 C50.51074128 -0.1111104 52.25546608 -0.05730221 54 0 C51.42569103 4.9932717 48.62479926 9.62866613 45.265625 14.13671875 C35.45740316 27.53563301 31.71815553 37.36847368 33 54 C29.04 54 25.08 54 21 54 C21.11794922 51.96585937 21.11794922 51.96585937 21.23828125 49.890625 C21.61778995 34.80447171 17.6163934 26.00586678 8.59130859 14.125 C6.45855759 11.27696921 4.57308636 8.32943817 2.6875 5.3125 C2.15511719 4.48363281 1.62273438 3.65476562 1.07421875 2.80078125 C0 1 0 1 0 0 Z " fill="#0C3251" transform="translate(846,360)"/>
<path d="M0 0 C14.85 0 29.7 0 45 0 C45 3.96 45 7.92 45 12 C39.72 12 34.44 12 29 12 C29 25.86 29 39.72 29 54 C25.04 54 21.08 54 17 54 C17 40.14 17 26.28 17 12 C11.39 12 5.78 12 0 12 C0 8.04 0 4.08 0 0 Z " fill="#0C3251" transform="translate(1484,360)"/>
<path d="M0 0 C14.85 0 29.7 0 45 0 C45 3.96 45 7.92 45 12 C39.72 12 34.44 12 29 12 C29 25.86 29 39.72 29 54 C25.04 54 21.08 54 17 54 C17 40.14 17 26.28 17 12 C11.39 12 5.78 12 0 12 C0 8.04 0 4.08 0 0 Z " fill="#0C3251" transform="translate(1193,360)"/>
<path d="M0 0 C4.29 0 8.58 0 13 0 C13 13.86 13 27.72 13 42 C21.58 42 30.16 42 39 42 C39 45.96 39 49.92 39 54 C26.13 54 13.26 54 0 54 C0 36.18 0 18.36 0 0 Z " fill="#0C3251" transform="translate(2206,360)"/>
<path d="M0 0 C3.96 0 7.92 0 12 0 C12 13.86 12 27.72 12 42 C20.91 42 29.82 42 39 42 C39 45.96 39 49.92 39 54 C26.13 54 13.26 54 0 54 C0 36.18 0 18.36 0 0 Z " fill="#0C3251" transform="translate(2265,360)"/>
<path d="M0 0 C4.29 0 8.58 0 13 0 C13 17.82 13 35.64 13 54 C8.71 54 4.42 54 0 54 C0 36.18 0 18.36 0 0 Z " fill="#0C3251" transform="translate(1160,360)"/>
</svg>
